<svg id="Layer_1" xmlns="http://www.w3.org/2000/svg" width="850.394" height="850.394" viewBox="0 0 850.394 850.394" overflow="visible"><path fill="none" d="M0 0h850.394v850.394H0z"/><text transform="matrix(.813 0 0 1 206.426 279.945)" fill="#50264b" font-family="Arial-BoldMT" font-size="153.246">(x + y) = 0</text><path fill="none" d="M0 0h850.394v850.394H0z"/><g id="XMLID_1_"><path fill="#9c5b16" d="M392.465 624.578l19.795 34.115H269.046l18.516-30.889 2.857-4.77h101.148zM398.733 658.981v82.979H287.17v-83.267h111.563z"/><path d="M320.974 556.439c3.479-1.049 7.27-1.613 11.222-1.613h15.658c3.791 0 7.431.53 10.795 1.486 11.994 3.422 20.555 12.397 20.555 22.939v43.782h-78.37v-43.782c0-10.414 8.365-19.298 20.14-22.812z" fill="#0b00ea"/><path d="M392.465 598.182v26.396l-.898-1.544h-12.363v-43.782c0-10.542-8.561-19.518-20.555-22.939l.312-1.014s33.504.806 33.504 42.883z" fill="#0b00ea"/><path d="M339.362 484.51c15.451 0 27.975 15.197 27.975 33.92 0 18.734-12.524 33.931-27.975 33.931-15.439 0-27.963-15.196-27.963-33.931 0-18.723 12.524-33.92 27.963-33.92z" fill="#ffeec8" class="aac-skin-fill"/><path d="M320.974 556.439c-11.775 3.514-20.14 12.397-20.14 22.813v43.782h-10.416l-2.857 4.77v-28.492c.001-40.788 31.478-42.781 33.413-42.873z" fill="#0b00ea"/><path fill="#9c5b16" d="M209.249 624.578l19.794 34.115H85.83l18.515-30.889 2.858-4.77h101.148zM215.517 658.981v82.979H103.954v-83.267h111.563z"/><path d="M137.77 556.439c3.491-1.049 7.27-1.613 11.222-1.613h15.646c3.802 0 7.431.53 10.807 1.498 11.994 3.422 20.543 12.397 20.543 22.928v43.782H117.63v-43.782c-.001-10.415 8.364-19.299 20.14-22.813z" fill="#0b00ea"/><path d="M209.249 598.182v26.396l-.898-1.544h-12.363v-43.782c0-10.53-8.549-19.506-20.543-22.928l.311-1.025s33.493.806 33.493 42.883z" fill="#0b00ea"/><path d="M156.158 484.51c15.439 0 27.975 15.197 27.975 33.92 0 18.734-12.536 33.931-27.975 33.931-15.45 0-27.974-15.196-27.974-33.931 0-18.723 12.524-33.92 27.974-33.92z" fill="#ffeec8" class="aac-skin-fill"/><path d="M137.77 556.439c-11.775 3.514-20.14 12.397-20.14 22.813v43.782h-10.427l-2.857 4.77v-28.492c-.001-40.868 31.603-42.792 33.424-42.873z" fill="#0b00ea"/><g fill="none" stroke="#231f20"><path d="M184.132 518.43c0 18.734-12.536 33.931-27.975 33.931-15.45 0-27.974-15.196-27.974-33.931 0-18.723 12.524-33.92 27.974-33.92 15.44 0 27.975 15.197 27.975 33.92zM195.988 623.034v-43.782c0-10.53-8.549-19.506-20.543-22.928a39.178 39.178 0 0 0-10.807-1.498h-15.646c-3.952 0-7.731.564-11.222 1.613-11.775 3.514-20.14 12.397-20.14 22.813v43.782" stroke-width="16.13"/><path stroke-width="24.195" d="M195.988 623.034h12.363l.898 1.544 19.794 34.115H85.83l18.515-30.889 2.858-4.77h10.426zM103.954 658.981v82.979h111.563v-82.979"/><path d="M137.85 556.439h-.081c-1.821.08-33.424 2.005-33.424 42.872v28.492M175.756 555.299s33.493.807 33.493 42.883v28.504M367.337 518.43c0 18.734-12.524 33.931-27.975 33.931-15.439 0-27.963-15.196-27.963-33.931 0-18.723 12.524-33.92 27.963-33.92 15.451 0 27.975 15.197 27.975 33.92zM379.204 623.034v-43.782c0-10.542-8.561-19.518-20.555-22.939a39.55 39.55 0 0 0-10.795-1.486h-15.658c-3.952 0-7.743.564-11.222 1.613-11.775 3.514-20.14 12.397-20.14 22.813v43.782" stroke-width="16.13"/><path stroke-width="24.195" d="M379.204 623.034h12.363l.898 1.544 19.795 34.115H269.046l18.516-30.889 2.857-4.77h10.415zM287.17 658.981v82.979h111.563v-82.979"/><path d="M321.066 556.439h-.092c-1.936.092-33.413 2.085-33.413 42.872v28.492M358.961 555.299s33.504.807 33.504 42.883v28.504" stroke-width="16.13"/></g></g></svg>