<svg id="Layer_1" xmlns="http://www.w3.org/2000/svg" width="850.394" height="850.394" viewBox="0 0 850.394 850.394" overflow="visible"><text transform="rotate(-4.336 3761.943 -4205.675)" fill="#231f20" font-family="ArialNarrow-Bold" font-size="34.146">AMBULANCE</text><g id="XMLID_8_"><path d="M772.37 358.95c-.08 14.98-.16 29.81-.22 43.37h-.011l-41.76 9.25-.33-40.85-.8-5.38 43.121-6.39z" fill="#fff400"/><path d="M772.14 402.32h.011c-.101 16.72-.17 31.5-.23 42.2l-32.5 11.9c-1.88-4.24-4.66-8.1-8.76-10.189l-.28-34.661 41.759-9.25z" fill="#00e800"/><path d="M739.42 456.42l32.5-11.9c-.06 11.061-.1 17.761-.1 17.761l-28.38 12.85c0-.001-.18-10.121-4.02-18.711zM747.73 308.67s1 10.07-7.25 10.07c-6.83 0-42.15 2.78-42.15 2.78s-10.87 1.81-10.87-8.03c0-4.02-.38-32.12-.38-32.12s-.2-8.84 8.439-8.84H740.9s6.83-.8 6.83 8.63v27.51z" fill="#fff"/><path d="M693.69 470.45c4.649-14.811 16.55-25.84 29.939-25.84 2.69 0 5.021.6 7.03 1.62 4.1 2.09 6.88 5.949 8.76 10.189 3.84 8.59 4.021 18.71 4.021 18.71l-.25 1.34c.859 5.721-1.091 15.82-3.061 22.12-5.55 17.79-19.58 27.26-33.2 23.01-9.109-2.84-15.05-11.779-16.33-22.699 0 0-1.64-8.24 2.11-24.83.281-1.23.601-2.44.981-3.62z"/><path d="M730.38 411.57l.28 34.661c-2.01-1.021-4.34-1.62-7.03-1.62-13.39 0-25.29 11.029-29.939 25.84l-10.881 3.33-.38-51.59 47.95-10.621z" fill="#fff400"/><path fill="#00e800" d="M730.05 370.72l.33 40.85-47.95 10.62-.36-49.86 47.18-6.99z"/><path d="M625.8 491.28l57.01-17.5 10.881-3.33c-.381 1.18-.7 2.39-.98 3.62-3.75 16.59-2.11 24.83-2.11 24.83l-160.27 52.27-.82-31.479 4.04-.11 26.45-8.12L625.8 491.28z" fill="#fff"/><path fill="#00e800" d="M682.43 422.19l.38 51.59-57.01 17.5-.64-56.4z"/><path fill="#fff400" d="M682.07 372.33l.36 49.86-57.27 12.69-.58-50.24-.55-3.72z"/><path d="M729.25 365.34l-47.18 6.99-58.04 8.59-67.721 10.03-30.029 4.45-5.05-193.89.17-4.65c4.5.22 10.85.83 19.64 2.25l220.07 23.29s11.779 3.75 11.779 23.56c0 9.73-.26 62.18-.52 112.99l-43.119 6.39zm11.23-46.6c8.25 0 7.25-10.07 7.25-10.07v-27.51c0-9.43-6.83-8.63-6.83-8.63h-45.381c-8.64 0-8.439 8.84-8.439 8.84s.38 28.1.38 32.12c0 9.84 10.87 8.03 10.87 8.03s35.32-2.78 42.15-2.78z" fill="#fff"/><path fill="#fff400" d="M625.16 434.88l.64 56.4-65.8 20.18-1.29-4.2-1.18-57.39z"/><path fill="#00e800" d="M625.16 434.88l-67.63 14.99-1.22-58.92 67.72-10.03.55 3.72z"/><path fill="#00e800" d="M558.71 507.26l1.29 4.2-26.45 8.12-4.04.11-1.65-63.25 29.67-6.57z"/><path fill="#fff400" d="M556.31 390.95l1.22 58.92-29.67 6.57-1.58-61.04z"/><path d="M526.28 395.4l1.58 61.041 1.649 63.25.82 31.479-37.51.18-.4-.989c5.75-2.33 9.66-4.141 10.6-5.08 2.11-2.11 3.86-16.32 5.181-32.221 1.85-22.38 2.859-48.1 2.859-48.1 0-2.16-.029-4.41-.09-6.74-.45-18.319-2.58-41.4-4.93-63.58-2.37-22.48-4.96-44.02-6.23-58.72-2.68-31.06-12.85-36.95-20.35-36.95s-149.59 2.88-149.59 2.88c-5.53 0-10.82.07-15.86.22V240.6s-2.95-19 25.7-21.68c31.19-2.92 171.88-21.69 171.88-21.69s2.391-.72 9.811-.37l-.17 4.65 5.05 193.89z" fill="#fff400"/><path d="M510.97 458.22c.061 2.33.09 4.58.09 6.74 0 0-1.01 25.72-2.859 48.1h-.01l-41.91 12.851-1.28-4.19-2.5-51.899 48.469-11.602z" fill="#fff400"/><path d="M510.97 458.22l-48.47 11.6-2.41-50c5.22-.93 9.37-1.73 11.34-2.52 2.29-.91 3.271-7.52 3.511-16.86l31.1-5.8c2.349 22.18 4.479 45.26 4.929 63.58z" fill="#00e800"/><path d="M508.19 513.06h.01c-1.32 15.9-3.07 30.11-5.181 32.221-.939.939-4.85 2.75-10.6 5.08-25.22 10.189-85.78 30.26-85.78 30.26s1.39-19.59-8.35-35.561l5.67-.05 62.32-19.1 41.911-12.85zM460.09 419.82c-15.97 2.89-41.92 7.2-45.95 17.291-5.36 13.39-3.75 21.42-30.52 27.31-8.56 1.88-18.7 4.01-28.64 5.94-21.16 4.109-41.38 7.319-43.39 5.31 0 0-3.18-16.09 14.2-50.33l-.21-.16c11.49-15.2 48.23-82.13 65.15-102.93 2.95-3.62 5.3-5.85 6.81-6.15 10.71-2.14 73.89-6.43 73.89 9.1 0 11.11 4.11 51.78 3.511 75.24-.24 9.34-1.221 15.95-3.511 16.86-1.97.789-6.12 1.589-11.34 2.519z" fill="#fff"/><path d="M465 521.72l1.28 4.19-62.32 19.1-5.67.05c-6.28-10.3-17.19-19.079-36.09-20.13 0 0-2.44-.5-6.5-.52l.07-5.101v-23.96L462.5 469.82l2.5 51.9z" fill="#00e800"/><path d="M460.09 419.82l2.41 50-106.73 25.53v-21.02l-.79-3.97c9.94-1.931 20.08-4.061 28.64-5.94 26.77-5.89 25.16-13.92 30.52-27.31 4.03-10.09 29.98-14.4 45.95-17.29z" fill="#fff400"/><path d="M351.95 534.21c29.4 6.21 47.44 38.69 40.29 72.54-7.14 33.86-36.78 56.26-66.18 50.06-23.71-5.01-40.03-32.069-41.72-58.18 3.69-13.29 8.78-24.979 8.78-24.979 2.67-6.131 5.55-11.511 8.56-16.221 4.76-7.46 9.87-13.26 15.02-17.76l.01.01c9.53-4.3 24.74-7.68 35.24-5.47zm18.09 68.67c3.3-16.689-3.89-32.189-16.07-34.6-12.17-2.41-24.71 9.189-28.01 25.89s3.89 32.19 16.06 34.59c12.17 2.42 24.71-9.17 28.02-25.88z"/><path d="M388.7 320.12l2.03 2.13c-16.92 20.8-53.66 87.73-65.15 102.93-.76 1-1.41 1.78-1.93 2.3-4.79 4.789-9.96 7.699-17.46 11.239 0 0-44.12 3.21-84.28.54-40.16-2.67-78.18-15-78.18-15l-2.67-.12c3.65-2.58 7.12-4.78 10.3-6.43 0 0 13.26-6.83 21.29-14.86 8.03-8.04 54.92-76.67 68.27-85.14 1.64-1.04 3.34-2.02 5.12-2.93l.01.01c0 .001 124.98-.559 142.65 5.331z" fill="#fff"/><path d="M353.97 568.28c12.18 2.41 19.37 17.91 16.07 34.6-3.31 16.71-15.85 28.3-28.02 25.88-12.17-2.399-19.36-17.89-16.06-34.59s15.84-28.3 28.01-25.89z" fill="#c8c8c8"/><path d="M355.77 495.35v23.96l-.07 5.101c-8.45-.03-23.92 2.06-39 15.26-5.15 4.5-10.26 10.3-15.02 17.76-18.77 7.891-55.21 9.07-81.39 8.75 6.94 0 14.47-14.47 20.36-27.33 3.49-7.609 5.76-13.25.52-16.08l114.6-27.421z" fill="#fff400"/><path d="M323.65 427.48c.52-.521 1.17-1.301 1.93-2.3l.21.16c-17.38 34.24-14.2 50.33-14.2 50.33 2.01 2.01 22.23-1.2 43.39-5.31l.79 3.97v21.02l-114.6 27.42c-3.6-1.949-10.77-2.569-23.54-1.59-6.75.521-15.09-.069-24.28-1.399v-.011s47.83-48.38 78.36-64.449c15.77-8.301 26.46-12.811 34.48-16.601 7.5-3.54 12.67-6.45 17.46-11.24z" fill="#00e800"/><path d="M306.19 438.72c-8.02 3.79-18.71 8.3-34.48 16.601-30.53 16.069-78.36 64.449-78.36 64.449v.011c-5.99-.87-12.33-2.05-18.83-3.45-41.07-8.84-88.08-26.2-88.08-26.2l-3.19-.28c1.85-6.109 4.69-12.3 9.08-18.33 9.81-13.47 31.19-34.93 48.73-47.379l2.67.12s38.02 12.33 78.18 15c40.16 2.668 84.28-.542 84.28-.542z" fill="#fff400"/><path d="M163.84 560.79c14.97 3.27 26.08 4.3 26.08 4.3s12.9.88 30.37 1.09c26.18.32 62.62-.859 81.39-8.75-3.01 4.71-5.89 10.09-8.56 16.221 0 0-5.09 11.689-8.78 24.979-1.24 4.48-2.32 9.13-3 13.58-2.67 17.67-36.27 13.25-60.37 13.25-11.05 0-26.72-2.26-42.89-5.83-19.1-4.21-38.88-10.24-52.55-16.52-.87-.4-1.74-.79-2.6-1.17-26.7-11.78-46.66-13.91-46.66-49.7 0-10.71-1.43-20.53 2.14-24.101l4.09-2.739c8.12 10.819 33.6 20.399 55.21 28.04 9.08 3.21 18.15 5.6 26.13 7.35z" fill="#fff"/><path d="M246.04 314.78c15.88-8.23 37.61-11.85 67.97-12.71 5.04-.15 10.33-.22 15.86-.22 0 0 142.09-2.88 149.59-2.88s17.67 5.89 20.35 36.95c1.271 14.7 3.86 36.24 6.23 58.72l-31.1 5.8c.6-23.46-3.511-64.13-3.511-75.24 0-15.53-63.18-11.24-73.89-9.1-1.51.3-3.86 2.53-6.81 6.15l-2.03-2.13c-17.67-5.89-142.65-5.33-142.65-5.33l-.009-.01z" fill="#fff400"/><path d="M241.17 522.77c5.24 2.83 2.97 8.471-.52 16.08-5.89 12.86-13.42 27.33-20.36 27.33-17.47-.21-30.37-1.09-30.37-1.09s-11.11-1.03-26.08-4.3c-4.27-10.6.82-34.9 10.15-42.021l.53-2.439c6.5 1.4 12.84 2.58 18.83 3.45 9.19 1.33 17.53 1.92 24.28 1.399 12.77-.979 19.94-.359 23.54 1.591z" fill="#f73900"/><path d="M174.52 516.33l-.53 2.439c-9.33 7.12-14.42 31.421-10.15 42.021-7.98-1.75-17.05-4.14-26.13-7.35-21.61-7.64-47.09-17.22-55.21-28.04-1.68-2.25-2.62-4.551-2.62-6.9 0-8.53.29-18.47 3.37-28.65l3.19.28s47.01 17.36 88.08 26.2z" fill="#fff400"/><g fill="none" stroke="#231f20"><path d="M314.01 303.25V240.6s-2.95-19 25.7-21.68c31.19-2.92 171.88-21.69 171.88-21.69s2.391-.72 9.811-.37c4.5.22 10.85.83 19.64 2.25l220.07 23.29s11.779 3.75 11.779 23.56c0 9.73-.26 62.18-.52 112.99-.08 14.98-.16 29.81-.22 43.37-.101 16.72-.17 31.5-.23 42.2-.06 11.061-.1 17.761-.1 17.761l-28.38 12.85s-.181-10.12-4.021-18.71c-1.88-4.24-4.66-8.1-8.76-10.189-2.01-1.021-4.34-1.62-7.03-1.62-13.39 0-25.29 11.029-29.939 25.84-.381 1.18-.7 2.39-.98 3.62-3.75 16.59-2.11 24.83-2.11 24.83l-160.27 52.27-.82-31.479-1.649-63.25-1.58-61.041-5.05-193.89" stroke-width="19.276"/><path stroke-width="12.851" d="M526.27 395.4h.01l30.03-4.45 67.72-10.03 58.04-8.59 47.18-6.99 43.12-6.39M527.86 456.44l29.67-6.57 67.63-14.99 57.27-12.69 47.95-10.62 41.76-9.25M687.08 281.37s-.2-8.84 8.439-8.84H740.9s6.83-.8 6.83 8.63v27.51s1 10.07-7.25 10.07c-6.83 0-42.15 2.78-42.15 2.78s-10.87 1.81-10.87-8.03c0-4.02-.38-32.12-.38-32.12z"/><path d="M78.41 528.14c-3.57 3.57-2.14 13.391-2.14 24.101 0 35.79 19.96 37.92 46.66 49.7.86.38 1.73.77 2.6 1.17 13.67 6.279 33.45 12.31 52.55 16.52 16.17 3.57 31.84 5.83 42.89 5.83 24.1 0 57.7 4.42 60.37-13.25.68-4.45 1.76-9.1 3-13.58 3.69-13.29 8.78-24.979 8.78-24.979 2.67-6.131 5.55-11.511 8.56-16.221 4.76-7.46 9.87-13.26 15.02-17.76 15.08-13.2 30.55-15.29 39-15.26 4.06.02 6.5.52 6.5.52 18.9 1.051 29.81 9.83 36.09 20.13 9.74 15.971 8.35 35.561 8.35 35.561s60.56-20.07 85.78-30.26c5.75-2.33 9.66-4.141 10.6-5.08 2.11-2.11 3.86-16.32 5.181-32.221 1.85-22.38 2.859-48.1 2.859-48.1 0-2.16-.029-4.41-.09-6.74-.45-18.319-2.58-41.4-4.93-63.58-2.37-22.48-4.96-44.02-6.23-58.72-2.68-31.06-12.85-36.95-20.35-36.95s-149.59 2.88-149.59 2.88c-5.53 0-10.82.07-15.86.22-30.36.86-52.09 4.48-67.97 12.71-1.78.91-3.48 1.89-5.12 2.93-13.35 8.47-60.24 77.1-68.27 85.14-8.03 8.03-21.29 14.86-21.29 14.86-3.18 1.65-6.65 3.85-10.3 6.43-17.54 12.45-38.92 33.91-48.73 47.379-4.39 6.03-7.23 12.221-9.08 18.33-3.08 10.181-3.37 20.12-3.37 28.65 0 2.35.94 4.65 2.62 6.9 8.12 10.819 33.6 20.399 55.21 28.04 9.08 3.21 18.15 5.6 26.13 7.35 14.97 3.27 26.08 4.3 26.08 4.3s12.9.88 30.37 1.09c26.18.32 62.62-.859 81.39-8.75" stroke-width="19.276"/><path d="M86.44 490.13s47.01 17.36 88.08 26.2c6.5 1.4 12.84 2.58 18.83 3.45 9.19 1.33 17.53 1.92 24.28 1.399 12.77-.979 19.94-.359 23.54 1.59 5.24 2.83 2.97 8.471-.52 16.08-5.89 12.86-13.42 27.33-20.36 27.33" stroke-width="12.851"/><path d="M173.99 518.77c-9.33 7.12-14.42 31.421-10.15 42.021.08.19.16.37.24.55M193.35 519.77s47.83-48.38 78.36-64.449c15.77-8.301 26.46-12.811 34.48-16.601 7.5-3.54 12.67-6.45 17.46-11.239.52-.521 1.17-1.301 1.93-2.3 11.49-15.2 48.23-82.13 65.15-102.93 2.95-3.62 5.3-5.85 6.81-6.15 10.71-2.14 73.89-6.43 73.89 9.1 0 11.11 4.11 51.78 3.511 75.24-.24 9.34-1.221 15.95-3.511 16.86-1.97.79-6.12 1.59-11.34 2.52-15.97 2.89-41.92 7.2-45.95 17.291-5.36 13.39-3.75 21.42-30.52 27.31-8.56 1.88-18.7 4.01-28.64 5.94-21.16 4.109-41.38 7.319-43.39 5.31 0 0-3.18-16.09 14.2-50.33M246.05 314.79s124.98-.56 142.65 5.33" stroke-width="12.851"/><path d="M143.73 424.26s38.02 12.33 78.18 15c40.16 2.67 84.28-.54 84.28-.54M370.04 602.88c-3.31 16.71-15.85 28.3-28.02 25.88-12.17-2.399-19.36-17.89-16.06-34.59s15.84-28.3 28.01-25.89c12.18 2.41 19.37 17.91 16.07 34.6zM739.42 456.42l32.5-11.9M533.55 519.58l26.45-8.12 65.8-20.18 57.01-17.5 10.88-3.33 2.79-.86M556.31 390.95l1.22 58.92 1.18 57.39" stroke-width="12.851"/><path stroke-width="12.851" d="M624.58 384.64l.58 50.24.64 56.4.02 1.7M682.07 372.33l.36 49.86.38 51.59M730.05 370.72l.33 40.85.28 34.66.02 2.76M241.1 522.79l.07-.02 114.6-27.42 106.73-25.53 48.47-11.6M474.94 400.44l31.1-5.8M403.96 545.01l62.32-19.1 41.91-12.85"/><path stroke-width="12.851" d="M460 418l.09 1.82 2.41 50 2.5 51.9M355.77 474.33V519.31"/><path d="M743.19 476.47c.859 5.721-1.091 15.82-3.061 22.12-5.55 17.79-19.58 27.26-33.2 23.01-9.109-2.84-15.05-11.779-16.33-22.699M316.71 539.68c9.53-4.3 24.74-7.68 35.24-5.47 29.4 6.21 47.44 38.69 40.29 72.54-7.14 33.86-36.78 56.26-66.18 50.06-23.71-5.01-40.03-32.069-41.72-58.18M178 620c-5.08 9.96-7.99 11.6-21.86 11.6-18.5 0-33.49-12.43-33.49-27.76M492.82 551.35l37.51-.18" stroke-width="19.276"/></g></g><text transform="rotate(-4.336 3829.652 -4127.242)" fill="#231f20" font-family="ArialNarrow-Bold" font-size="35.835">AMBULANCE</text><path fill="none" d="M0 0h850.394v850.394H0z"/></svg>