<?xml version="1.0" encoding="UTF-8" standalone="no"?>
<svg
   id="Layer_1"
   viewBox="0 0 850 850"
   version="1.1"
   sodipodi:docname="catch_2_,_to.svg"
   inkscape:version="1.4 (e7c3feb1, 2024-10-09)"
   xmlns:inkscape="http://www.inkscape.org/namespaces/inkscape"
   xmlns:sodipodi="http://sodipodi.sourceforge.net/DTD/sodipodi-0.dtd"
   xmlns="http://www.w3.org/2000/svg"
   xmlns:svg="http://www.w3.org/2000/svg">
  <defs
     id="defs17" />
  <sodipodi:namedview
     id="namedview17"
     pagecolor="#ffffff"
     bordercolor="#000000"
     borderopacity="0.25"
     inkscape:showpageshadow="2"
     inkscape:pageopacity="0.0"
     inkscape:pagecheckerboard="0"
     inkscape:deskcolor="#d1d1d1"
     inkscape:zoom="1.1845386"
     inkscape:cx="224.56001"
     inkscape:cy="449.96424"
     inkscape:window-width="3440"
     inkscape:window-height="1281"
     inkscape:window-x="1680"
     inkscape:window-y="25"
     inkscape:window-maximized="1"
     inkscape:current-layer="Layer_1" />
  <style
     id="style1">.st0{fill:#394ea1}.st1{fill:#797878}.st2{fill:#a8d7f4}.st3{fill:#ffeec8}.st4{fill:#ed1e29}.st5,.st6,.st7,.st8{fill:none;stroke:#231f20;stroke-width:10.25;stroke-linecap:round;stroke-miterlimit:10}.st6,.st7,.st8{stroke-width:7}.st7,.st8{stroke-width:14}.st8{stroke-width:21}</style>
  <path
     class="st0"
     d="M291.8 736.5l1.7.5-2 8.8-1.5 8-1.2 7.2-1 6.3-.5 5.7-.5 4.8-.3 6.7v2.5l-.5 2-.7 2-1 1.8-1.3 1.5-1.5 1.2-1.5 1-1.7.8-1.8.5h-1.7l-1.8-.3-2-.7-1.7-1-1.8-1.5-1.5-2-1.5-2.3-1.2-2.5-.8-2.2-.5-2-.5-2v-3.5l.3-3 .5-2.5.2-2.5v-1.3l-.2-1.5-.5-1.2-.5-1.3-1-1.5-1.3-1.2-2.2-2.5-2.3-2.5-1-1.3-.7-1.5-.5-1.2-.3-1.5v-1.5l.5-1.5 1-2 1.5-1.8 2-2 2.5-2.2.5-.3 1.5-1 1-.7 1-1 1-1.3.8-1.5h.5z"
     id="path1" />
  <path
     class="st1"
     d="M291.8 736.5l-26-2h-.5l1-2.5.5-3.2V725l-.3-2-.2-2.5-.5-3.2-.5-3.5V710l-.3-4.2.5-8.5.8-8.5 1-8.5 1.2-7.8 1.5-6.7 1.5-5 1-4 .5-3.8.3-4.2-.5-4.5-.8-13-.5-9-.2-11.3-.3-21.2V559l.5-10.2.8-10.5 1.2-10.8.8-3.2 1.7-7.5 1.5-4.8 1.8-5 2.2-4.7 1-2 1.3-2 2-2.5 1.2.7 4.5 1.8 3.3 1 4.2 1.2 5 1.3 6 1 6.8.7 7.5.8 8.5.2 9.5-.2 10.5-.5 11.5-1 12.5-1.5 13.5-2.5h1l.5 5.5.7 4.5.8 3.7 1 2.5 5.2 9.5 5 10.3 5.5 11 5.3 11.5 5.5 12.5 5.5 13.2 5.5 14.3 5.5 15 5.2 14.2 1.8 5.5.5 2.3.5 2.5v4.5l-.5 2.2-.8 2.5-1 2.8-1.2 2.7-1.8 3.3-1.7 3.5L428 675l-4.5 7.5-4 7-3.5 6.8-3.5 7-3 7-3 7.2-1 2.8-.5 2.7-1.2-.5-2 .3-2 .2-2-.2-1.8-.3-3.5-.7-3.5-1.3-2.7-1.5-2.5-1.2-3.8-2.5.8-4.3.2-5.2.3-5.5.5-5.3.7-4.7.8-4.8 1-4.5 1.2-4 1.3-4 1.5-3.5 3-6.5 3-5.5 2.7-4.7 2.5-3.8 2.3-3.2 1.7-3.3 1.5-3 1-2.7.5-2.3-.2-1v-1l-.5-1-.8-.7-.7-.8-1.3-.5-1.2-.5-1.8-1-4.2-3-5-4.2-5.5-5-6-6-6-6.5-6-7-2.8-3.8-2.5-3.5-3.7-6-3.3-5.2-2.7-4.5-2.5-4-2.5-3.5-2.5-2.8-1.5-1-1.5-1-1.5-1-1.8-.5-1-.2-3.7 14.7-4.5 16.3-4.8 16.2-4.7 15.3-2.8 8.5-2.2 6.7-1.3 5.3-1 4-.5 3.5-.2 3-.8 6.7-1.2 11-1 5.5-1 6-1.5 6.8-2 8.2-6 21.8-2.5 9.5-2.3 8.7z"
     id="path2" />
  <path
     class="st0"
     d="M380 715.3l3.8 2.5 2.5 1.2 2.7 1.5 3.5 1.3 3.5.7 1.8.3 2 .2 2-.2 2-.3 1.2.5-.5 2.3-.2 2.2v3.8l.5 1.5.5 1.7 1 1.3 1 1.5 2.5 3 3.5 2.7 8.5 7.3 1.2 1.2 1 1.3.8 1.2.7 1.3.5 1.2.5 1.3.3 1.2v2.3l-.3 1.2-.5 1-.5 1-.7 1-.8.8-1 1-1 .5-1.2.7-1.3.5-1.5.3-1.5.2h-3.2l-2-.2-1.8-.3-2-.5-2-.7-2.2-1-2.3-1-2.2-1.5-2.5-1.5-2.3-1.8-2.5-2-1.7-1.2-1.8-1-3.5-1.8-3.2-1-3-1.2-1.3-.5-1.2-.8-1.3-1-1.2-1.2-1-1.5-1-2-.8-2.3-.7-2.5-.3-1.5V738l.3-1.2.5-1.3 1.2-2.2 1.5-2.5 2-2.8 2-3.5 1-2 .8-2 .7-2.5z"
     id="path3" />
  <path
     class="st2"
     d="M283.8 498.3l1-4.8.5-4.2 1-7.8.2-5.5.3-2.2-.5-12.3-1-28.7-.5-16.8v-30l.2-5.7.5-4.8.8-7.7 1.5-7.3 2-7.5 2.7-7.7 3.5-8.5 4.5-9.3 5.8-10.5 6.7-12.2 3.3-5 4-5.5 4.7-6 5.3-6 5.5-6.3 6-6.5 12.2-12.7 12.5-12.3 11.5-11 10-9 7.8-6.5 3.7-3 14.8 18.5-31.3 46-40.5 59.8.5 2.7.5 2.3.8 2.2 1 1.8 1 1.7 1 1.8 1.2 1.5 1.3 1.2 2.5 2 3 1.8 3 1.5 2.7 1 2.3.7 2.2.3 2.3.2 2.5-.2 2.2-.3 2.3-.5 2.2-.7 2.3-1 2.2-1 2.3-1.5 2-1.5 2.2-1.5 2-2 1.8-2 2-2.3 1.7-2.2 3.8-4.3 4.7-4.2 4.8-4 5.2-4 5-3.5 4.5-3.3 7.3-4.5 19.2-21 17.3-18.5 16.7-17.7 16.5 12 .3.2-14.3 21.8-14.5 21-8 11.2-8 11.3-7 9.2-7 8.8-7 8-6.7 7.5-12.8 13.2-11.2 11.8-.8 1-1 1.5-1.7 3.7-1.8 4.8-1.5 5.5-1.5 6-1.2 6.7-1 7.3-1 7.5-.8 7.7-.5 7.8-.5 7.7-.2 7.8-.3 7.5.3 7.2v6.8l.5 6h-1l-13.5 2.5-12.5 1.5-11.5 1-10.5.5-9.5.2-8.5-.2-7.5-.8-6.8-.7-6-1-5-1.3-4.2-1.2-3.3-1-4.5-1.8-1.2-.7z"
     id="path4" />
  <path
     class="st3"
     d="M361 360.8l-2.7-1-3-1.5-3-1.8-2.5-2-1.3-1.2-1.2-1.5-1-1.8-1-1.7-1-1.8-.8-2.2-.5-2.3-.5-2.7 40.5-59.8 3.8 2.8.7.2 2.8 1.3 2.7 1.5 2.3 1.7 2.2 2.3 1.8 2.5 1.7 2.7 1.5 3 1 3.3 1 3.2.5 3.8.3 3.5v4l-.3 3.7-.5 4-.7 4-1.3 4.3-1.5 3.7-1.7 3.5-1.8 3.5-2 3.3-1.7 2.2-2 2.3-1.8 2-2 2-2.2 1.5-2 1.5-2.3 1.5-2.2 1-2.3 1-2.2.7-2.3.5-2.2.3-2.5.2-2.3-.2-2.2-.3z"
     id="path5" />
  <path
     class="st4"
     d="M541.8 56.5l5.2.5 5.3.8 5 1.2 4.7 1.8 4.8 2.2 4.2 2.5 4 3 3.8 3.5 3.5 3.8 3 4 2.5 4.2 2.2 4.5 1.8 5 1.2 5 .8 5.3.2 5.2-.2 5.3-.8 5.2-1.2 5-1.8 5-2.2 4.5-2.5 4.3-3 4-3.5 3.7-3.8 3.5-4 3-4.2 2.5-4.8 2.3-4.7 1.7-5 1.3-5.3.7-5.2.5-5.5-.5-5-.7-5-1.3-5-1.7-4.5-2.3-4.3-2.5-4-3-3.7-3.5-3.5-3.7-3-4-2.5-4.3-2.3-4.5-1.7-5-1.3-5-1-5.2-.2-5.3.2-5.2 1-5.3 1.3-5 1.7-5 2.3-4.5 2.5-4.2 3-4 3.5-3.8 3.7-3.5 4-3 4.3-2.5 4.5-2.2 5-1.8 5-1.2 5-.8z"
     id="path6" />
  <path
     class="st3"
     d="M429.8 159.8l-1.3 4 .8-1.3 1-.5 1.2-.5 1 .3 1 .5 1 .7.3.8v1.2l-1.5 5.5-2.5 10L428 191l-1 5v2.5l.3.3h.2l.8-.3.7-.7.8-1 1.5-1.8.5-1 .5-1 .7-1 1.3-1.2 1.2-.5h1l1 .2 1 .5.5.8.3.7-.3.8-1.2 2-1.5 3-2.8 6-2 2.7-2.2 3-2.8 3-1.2 1-1.3.8-.5.5-.7.7-1.5 2.5-1.5 3-1.8 3.3-2.7 6-1 2.7-14.8-18.5-3.7 3 1.2-7 2-11 2.5-11.2 1-4.5 1.3-3 1.5-4.3 2-4.5 1.5-4.2 1-1.5.7-1.3.5-.7.5-.3h.3l1.7.5.8.8.2 1v1.2l2-5.2.8-2 .7-1 .8-.8 1-.2h.5l1 .5.5.5.5.2.2.8v.7l-.2.8 1-2.3.7-1.5 1.3-1 1.5-.5.5.3 1.2.2.5.5.5.5.3.5zM542 230.3l.3.2v.5l-.5 1-.5 1.3-1.3 1.5-2.7 3.5-3 3.5-3 3.7-2.5 2.5-3.8 3.8-10 8.2-9 7.3-4 3.2-1.5 1.8-16.5-12 .3-5.5 1.2-1.3 2.5-3 1.5-2 1.3-1.7.7-1.8.5-1.5V242l.5-1.7 1.3-3.5 1.5-3.8 1.5-2.7 4-5.5 1.7-2.8 1.3-2 .7-.5.8-.2.7.2 1 .5.5.8.5 1 .3 1.2-.5 1.8-.5 1-.8 1-.5 1-1 2-.2 1.2-.3 1v.8l.3.2h.2l.8-.2 1.2-1 4-3.3 8-7.2 7.5-7.3 1.3-1 1.2-1 1.5-.7 1.8-.8h1.5l.7.3.8.5.7 1 .8 1 1-1 .5-.3.7-.2.5.2.8.5 1 .8.2.2.3 1.5-.3 1.5-1 1.8-1.5 1.7.8-.5.5-.5h.7l.5.3.8.2.7.8.3.2.2 1-.2 1-.5 1.3-1.5 1.5-1 1.2-2.8 3 1.3-.5 1-.2.7.2 1 .8z"
     id="path7" />
  <path
     class="st5"
     d="M532.5 230.3l4-3.8 1-.5 1-.2 1 .2.8.5.5.8.5.7.2.8v1l-.2.7-.8 1"
     id="path8" />
  <path
     class="st6"
     d="M534.3 241.8l3-3.5 2.7-3.5 1.3-1.5.5-1.3.5-1v-.5l-.3-.2-.5-.5-1-.8-.7-.2-1 .2-1.3.5"
     id="path9" />
  <path
     class="st7"
     d="m 387.5,282.5 h 0.8 l 2,1.3 2.7,1.5 2.3,1.7 2.2,2.3 1.8,2.5 1.7,2.7 1.5,3 1,3.3 1,3.2 0.5,3.8 0.3,3.5 v 4 l -0.3,3.7 -0.5,4 -0.7,4 -1.3,4.3 -1.5,3.7 -1.7,3.5 -1.8,3.5 -2,3.3 -1.7,2.2 -2,2.3 -1.8,2 -2,2 -2.2,1.5 -2,1.5 -2.3,1.5 -2.2,1 -2.3,1 -2.2,0.7 -2.3,0.5 -2.2,0.3 -2.5,0.2 -2.3,-0.2 -2.2,-0.3 -2.3,-0.7 -2.7,-1 -3,-1.5 -3,-1.8 -2.5,-2 -1.3,-1.2 -1.2,-1.5 -1,-1.8 -1,-1.7 -1,-1.8 -0.8,-2.2 -0.5,-2.3 -0.5,-2.7 m 36.5,375.2 1,0.8 3.8,2.5 2.5,1.2 2.7,1.5 3.5,1.3 3.5,0.7 1.8,0.3 2,0.2 2,-0.2 2,-0.3 m -118,-226.7 1.2,0.7 4.5,1.8 3.3,1 4.2,1.2 5,1.3 6,1 6.8,0.7 7.5,0.8 8.5,0.2 9.5,-0.2 10.5,-0.5 11.5,-1 12.5,-1.5 13.5,-2.5"
     id="path10"
     sodipodi:nodetypes="cccccccccccccccccccccccccccccccccccccccccccccccccccccccccccccccccccccccccccc"
     inkscape:label="path10" />
  <path
     class="st7"
     d="m 283.3,500.5 0.5,-2.2 1,-4.8 0.5,-4.2 1,-7.8 0.2,-5.5 0.3,-2.2 -0.5,-12.3 -1,-28.7 -0.5,-16.8 v -30 l 0.2,-5.7 0.5,-4.8 0.8,-7.7 1.5,-7.3 2,-7.5 2.7,-7.7 3.5,-8.5 4.5,-9.3 5.8,-10.5 6.7,-12.2 3.3,-5 4,-5.5 4.7,-6 5.3,-6 5.5,-6.3 6,-6.5 12.2,-12.7 12.5,-12.3 11.5,-11 10,-9 7.8,-6.5 3.7,-3 14.8,18.5 -31.3,46 -40.5,59.8 -13.2,19.7 m -37.5,377.5 -26,-2"
     id="path11"
     sodipodi:nodetypes="ccccccccccccccccccccccccccccccccccccccc" />
  <path
     class="st7"
     d="M348.8 524.3l-3 4.7-2.5 4.8-1 2.2-.8 2.3-.5 2.2-.5 2-.2 3.5-.8 4-2 9.3-3.7 14.7-4.5 16.3-4.8 16.2-4.7 15.3-2.8 8.5-2.2 6.7-1.3 5.3-1 4-.5 3.5-.2 3-.8 6.7-1.2 11-1 5.5-1 6-1.5 6.8-2 8.2-6 21.8-2.5 9.5-2.3 8.7-2 8.8-1.5 8-1.2 7.2-1 6.3-.5 5.7-.5 4.8-.3 6.7v2.5l-.5 2-.7 2-1 1.8-1.3 1.5-1.5 1.2-1.5 1-1.7.8-1.8.5h-1.7l-1.8-.3-2-.7-1.7-1-1.8-1.5-1.5-2-1.5-2.3-1.2-2.5-.8-2.2-.5-2-.5-2v-3.5l.3-3 .5-2.5.2-2.5v-1.3l-.2-1.5-.5-1.2-.5-1.3-1-1.5-1.3-1.2-2.2-2.5-2.3-2.5-1-1.3-.7-1.5-.5-1.2-.3-1.5v-1.5l.5-1.5 1-2 1.5-1.8 2-2 2.5-2.2.5-.3 1.5-1 1-.7 1-1 1-1.3.8-1.5 1-2.5.5-3.2V725l-.3-2-.2-2.5-.5-3.2-.5-3.5V710l-.3-4.2.5-8.5.8-8.5 1-8.5 1.2-7.8 1.5-6.7 1.5-5 1-4 .5-3.8.3-4.2-.5-4.5-.8-13-.5-9-.2-11.3-.3-21.2V559l.5-10.2.8-10.5 1.2-10.8.8-3.2 1.7-7.5 1.5-4.8 1.8-5 2.2-4.7 1-2 1.3-2 2-2.5"
     id="path12" />
  <path
     class="st7"
     d="M394.5 346.3l1-1 3.8-4.3 4.7-4.2 4.8-4 5.2-4 5-3.5 4.5-3.3 7.3-4.5 19.2-21 17.3-18.5 16.7-17.7 16.5 12 .3.2-14.3 21.8-14.5 21-8 11.2-8 11.3-7 9.2-7 8.8-7 8-6.7 7.5-12.8 13.2-11.2 11.8-.8 1-1 1.5-1.7 3.7-1.8 4.8-1.5 5.5-1.5 6-1.2 6.7-1 7.3-1 7.5-.8 7.7-.5 7.8-.5 7.7-.2 7.8-.3 7.5.3 7.2v6.8l.5 6 .5 5.5.7 4.5.8 3.7 1 2.5 5.2 9.5 5 10.3 5.5 11 5.3 11.5 5.5 12.5 5.5 13.2 5.5 14.3 5.5 15 5.2 14.2 1.8 5.5.5 2.3.5 2.5v4.5l-.5 2.2-.8 2.5-1 2.8-1.2 2.7-1.8 3.3-1.7 3.5L428 675l-4.5 7.5-4 7-3.5 6.8-3.5 7-3 7-3 7.2-1 2.8-.5 2.7-.5 2.3-.2 2.2v3.8l.5 1.5.5 1.7 1 1.3 1 1.5 2.5 3 3.5 2.7 8.5 7.3 1.2 1.2 1 1.3.8 1.2.7 1.3.5 1.2.5 1.3.3 1.2v2.3l-.3 1.2-.5 1-.5 1-.7 1-.8.8-1 1-1 .5-1.2.7-1.3.5-1.5.3-1.5.2h-3.2l-2-.2-1.8-.3-2-.5-2-.7-2.2-1-2.3-1-2.2-1.5-2.5-1.5-2.3-1.8-2.5-2-1.7-1.2-1.8-1-3.5-1.8-3.2-1-3-1.2-1.3-.5-1.2-.8-1.3-1-1.2-1.2-1-1.5-1-2-.8-2.3-.7-2.5-.3-1.5V738l.3-1.2.5-1.3 1.2-2.2 1.5-2.5 2-2.8 2-3.5 1-2 .8-2 .7-2.5.5-2.7.8-4.3.2-5.2.3-5.5.5-5.3.7-4.7.8-4.8 1-4.5 1.2-4 1.3-4 1.5-3.5 3-6.5 3-5.5 2.7-4.7 2.5-3.8 2.3-3.2 1.7-3.3 1.5-3 1-2.7.5-2.3-.2-1v-1l-.5-1-.8-.7-.7-.8-1.3-.5-1.2-.5-1.8-1-4.2-3-5-4.2-5.5-5-6-6-6-6.5-6-7-2.8-3.8-2.5-3.5-3.7-6-3.3-5.2-2.7-4.5-2.5-4-2.5-3.5-2.5-2.8-1.5-1-1.5-1-1.5-1-1.8-.5"
     id="path13" />
  <path
     class="st6"
     d="M433.3 170.5l1.5-5.5v-1.2l-.3-.8-1-.7-1-.5-1-.3-1.2.5-1 .5-.8 1.3M428 191l2.8-10.5 2.5-10M433 192l-.7 1-.5 1-.5 1-1.5 1.8-.8 1-.7.7-.8.3h-.2l-.3-.3V196l1-5M414.3 233.5l1-2.7 2.7-6 1.8-3.3 1.5-3 1.5-2.5.7-.7.5-.5 1.3-.8 1.2-1 2.8-3 2.2-3 2-2.7 2.8-6 1.5-3 1.2-2 .3-.8-.3-.7-.5-.8-1-.5-1-.2h-1l-1.2.5-1.3 1.2M405.3 177l2-4.5 1.5-4.2 1-1.5.7-1.3.5-.7.5-.3h.3l1.7.5.8.8.2 1v1.2l.3.3M395.5 218.8l.3-.8 1.2-7 2-11 2.5-11.2 1-4.5 1.3-3 1.5-4.3"
     id="path14" />
  <path
     class="st6"
     d="M407.3 188.3l7.2-20.3 2-5.2.8-2 .7-1 .8-.8 1-.2h.5l1 .5.5.5.5.2.2.8v.7l-.2.8-1.5 5.5-2 7.2-2.8 9M422.3 162.3l1-2.3.7-1.5 1.3-1 1.5-.5.5.3 1.2.2.5.5.5.5.3.5v.8l-1.3 4-7.7 28.7M511 228.5l8-7.2 7.5-7.3 1.3-1 1.2-1 1.5-.7 1.8-.8h1.5l.7.3.8.5.7 1 .8 1 .2.5M507.8 224.8l-.5 1-.8 1-.5 1-1 2-.2 1.2-.3 1v.8l.3.2h.2l.8-.2 1.2-1 4-3.3M484.3 254.8l1.2-1.3 2.5-3 1.5-2 1.3-1.7.7-1.8.5-1.5V242l.5-1.7 1.3-3.5 1.5-3.8 1.5-2.7 4-5.5 1.7-2.8 1.3-2 .7-.5.8-.2.7.2 1 .5.5.8.5 1 .3 1.2-.5 1.8M502 270.5l4-3.2 9-7.3 10-8.2 3.8-3.8 2.5-2.5 3-3.7M523.3 245.5l14.2-16 2.8-3 1-1.2 1.5-1.5.5-1.3.2-1-.2-1-.3-.2-.7-.8-.8-.2-.5-.3h-.7l-.5.5-.8.5-4.2 4-5.3 5.3-6.5 6.5"
     id="path15" />
  <path
     class="st6"
     d="M539 220l1.5-1.7 1-1.8.3-1.5-.3-1.5-.2-.2-1-.8-.8-.5-.5-.2-.7.2-.5.3-1 1-23.8 22.5"
     id="path16" />
  <path
     class="st8"
     d="M594 109l-.2 5.3-.8 5.2-1.2 5-1.8 5-2.2 4.5-2.5 4.3-3 4-3.5 3.7-3.8 3.5-4 3-4.2 2.5-4.8 2.3-4.7 1.7-5 1.3-5.3.7-5.2.5-5.5-.5-5-.7-5-1.3-5-1.7-4.5-2.3-4.3-2.5-4-3-3.7-3.5-3.5-3.7-3-4-2.5-4.3-2.3-4.5-1.7-5-1.3-5-1-5.2-.2-5.3.2-5.2 1-5.3 1.3-5 1.7-5 2.3-4.5 2.5-4.2 3-4 3.5-3.8 3.7-3.5 4-3 4.3-2.5 4.5-2.2 5-1.8 5-1.2 5-.8 5.5-.5 5.2.5 5.3.8 5 1.2 4.7 1.8 4.8 2.2 4.2 2.5 4 3 3.8 3.5 3.5 3.8 3 4 2.5 4.2 2.2 4.5 1.8 5 1.2 5 .8 5.3z"
     id="path17" />
</svg>
