<svg id="Layer_1" xmlns="http://www.w3.org/2000/svg" width="850.394" height="850.394" viewBox="0 0 850.394 850.394" overflow="visible"><g id="XMLID_3_"><path d="M711.59 263.76v17.12c0 4.51-3.66 8.17-8.17 8.17-2.26 0-4.3-.91-5.78-2.39a8.15 8.15 0 0 1-2.399-5.78v-17.12c0-4.52 3.66-8.18 8.18-8.18 2.26 0 4.3.92 5.78 2.4a8.142 8.142 0 0 1 2.389 5.78zM669.17 263.76v17.12c0 4.51-3.66 8.17-8.17 8.17-2.26 0-4.3-.91-5.78-2.39a8.142 8.142 0 0 1-2.39-5.78v-17.12c0-4.52 3.66-8.18 8.17-8.18 2.26 0 4.3.92 5.78 2.4a8.138 8.138 0 0 1 2.39 5.78zM624.03 263.76v17.12c0 4.51-3.66 8.17-8.17 8.17a8.135 8.135 0 0 1-5.78-2.39 8.138 8.138 0 0 1-2.39-5.78v-17.12c0-4.52 3.659-8.18 8.17-8.18 2.26 0 4.3.92 5.779 2.4a8.135 8.135 0 0 1 2.391 5.78zM578.89 264.14v17.13a8.172 8.172 0 0 1-13.949 5.78 8.157 8.157 0 0 1-2.391-5.78v-17.13c0-4.51 3.66-8.17 8.17-8.17 2.261 0 4.3.91 5.78 2.39s2.39 3.52 2.39 5.78zM536.47 264.14v17.13a8.173 8.173 0 0 1-13.95 5.78 8.16 8.16 0 0 1-2.39-5.78v-17.13c0-4.51 3.66-8.17 8.17-8.17 2.26 0 4.3.91 5.78 2.39a8.138 8.138 0 0 1 2.39 5.78z" fill="#bd2226"/><path d="M717.3 432.9c.51 19.72 0 67.979 0 67.979s-1.51 26.4-29.58 27.49c-13.649.53-26.16.93-38.12 1.189-22.92.49-43.8.49-66.71 0-11.97-.26-24.489-.659-38.14-1.189-28.07-1.09-29.58-27.49-29.58-27.49s-.51-48.26 0-67.979c.521-19.71 14.01-36.32 34.25-67.45 20.23-31.13 31.13-31.13 31.13-31.13h71.37s10.9 0 31.13 31.13c20.24 31.13 33.73 47.74 34.25 67.45z" fill="#ffffc2"/><path d="M649.6 529.56l.11 4.721-12.45 81.97h-42.03l-12.45-81.97.109-4.721c22.911.49 43.791.49 66.711 0z" fill="#231f20"/><path d="M715.48 150.13v66.15c0 6.88-5.58 12.45-12.45 12.45H540.37c-6.88 0-12.46-5.57-12.46-12.45v-66.15c0-6.88 5.58-12.46 12.46-12.46h162.66c6.87 0 12.45 5.58 12.45 12.46z" fill="#fff"/><path d="M616.05 622.63l-6.42-.09c-3.1-.26-28.79 0-101.17-2.33-19.3-.62-16.78-23.83-15.82-31.31.141-1.101.25-1.86.25-2.16 0-2.33 1.561-163.44 3.11-196.9 1.56-33.47-8.56-78.61-12.45-129.98-.95-12.53-1.25-26.63-1.03-41.21.65-45.2 6.23-95 12.7-116.78 8.57-28.79 31.91-28.02 31.91-28.02l179.86.2s23.35-.78 31.91 28.02c8.56 28.79 15.569 106.62 11.67 157.99-3.891 51.37-14 96.51-12.45 129.97 1.56 33.47 3.12 194.57 3.12 196.911 0 2.329 6.56 32.75-15.57 33.46-72.38 2.34-98.08 2.08-101.18 2.34l-8.44-.111zm-20.82-6.38h42.029l12.45-81.97-.11-4.721c11.96-.26 24.471-.659 38.12-1.189 28.07-1.09 29.58-27.49 29.58-27.49s.51-48.26 0-67.979c-.52-19.71-14.01-36.32-34.25-67.45-20.229-31.13-31.13-31.13-31.13-31.13h-71.37s-10.899 0-31.13 31.13c-20.24 31.13-33.729 47.74-34.25 67.45-.51 19.72 0 67.979 0 67.979s1.51 26.4 29.58 27.49c13.65.53 26.17.93 38.14 1.189l-.109 4.721 12.45 81.97zm120.25-399.97v-66.15c0-6.88-5.58-12.46-12.45-12.46H540.37c-6.88 0-12.46 5.58-12.46 12.46v66.15c0 6.88 5.58 12.45 12.46 12.45h162.66c6.87 0 12.45-5.57 12.45-12.45zm-3.89 64.6v-17.12c0-2.26-.91-4.3-2.39-5.78a8.149 8.149 0 0 0-5.78-2.4c-4.52 0-8.18 3.66-8.18 8.18v17.12c0 2.26.92 4.3 2.399 5.78a8.14 8.14 0 0 0 5.78 2.39 8.173 8.173 0 0 0 8.171-8.17zm-42.42 0v-17.12c0-2.26-.91-4.3-2.39-5.78a8.149 8.149 0 0 0-5.78-2.4c-4.51 0-8.17 3.66-8.17 8.18v17.12c0 2.26.91 4.3 2.39 5.78a8.14 8.14 0 0 0 5.78 2.39c4.51 0 8.17-3.66 8.17-8.17zm-45.14 0v-17.12c0-2.26-.91-4.3-2.391-5.78a8.145 8.145 0 0 0-5.779-2.4c-4.511 0-8.17 3.66-8.17 8.18v17.12c0 2.26.909 4.3 2.39 5.78a8.137 8.137 0 0 0 5.78 2.39c4.51 0 8.17-3.66 8.17-8.17zm-45.14.39v-17.13c0-2.26-.909-4.3-2.39-5.78s-3.52-2.39-5.78-2.39c-4.51 0-8.17 3.66-8.17 8.17v17.13c0 2.25.91 4.3 2.391 5.78a8.173 8.173 0 0 0 13.949-5.78zm-42.42 0v-17.13c0-2.26-.91-4.3-2.39-5.78a8.14 8.14 0 0 0-5.78-2.39c-4.51 0-8.17 3.66-8.17 8.17v17.13a8.156 8.156 0 0 0 8.17 8.17c4.51 0 8.17-3.66 8.17-8.17z" fill="#f6cc4b"/><path fill="#c8c8c8" d="M278.87 452.36h42.54v25.42h-42.54zM172.5 452.36h42.54v25.42H172.5zM234.76 338.47h25.42v42.55h-25.42z"/><path fill="#ffffc2" d="M436.59 308.31h38.4v106.95h-38.4zM369.74 307.34h38.41v106.95h-38.41z"/><path d="M483.55 259.86c3.891 51.37 14.01 96.51 12.45 129.98-1.55 33.46-3.11 194.57-3.11 196.9 0 .3-.109 1.06-.25 2.16l-4.159-.601H113.3c-6.99 0-12.66-5.58-12.66-12.45V231.07c0-6.88 5.67-12.45 12.66-12.45h366.88l2.34.03c-.22 14.58.08 28.68 1.03 41.21zm-8.56 155.4V308.31h-38.4v106.95h38.4zm-66.84-.97V307.34h-38.41v106.95h38.41zm-86.74 63.49v-25.42h-42.54v25.42h42.54zm-61.23-96.76v-42.55h-25.42v42.55h25.42zm-45.14 96.76v-25.42H172.5v25.42h42.54z" fill="#ffffc2"/><g fill="none" stroke="#231f20"><path d="M582.89 529.56c-11.97-.26-24.489-.659-38.14-1.189-28.07-1.09-29.58-27.49-29.58-27.49s-.51-48.26 0-67.979c.521-19.71 14.01-36.32 34.25-67.45 20.23-31.13 31.13-31.13 31.13-31.13h71.37s10.9 0 31.13 31.13c20.24 31.13 33.73 47.74 34.25 67.45.51 19.72 0 67.979 0 67.979s-1.51 26.4-29.58 27.49c-13.649.53-26.16.93-38.12 1.189-22.92.49-43.8.49-66.71 0zM649.71 534.28l-12.45 81.97h-42.03l-12.45-81.97" stroke-width="14"/><path d="M615.6 618.65s.07 1.319.45 3.979c1.91 13.42 11.67 60.93 59.74 144.94" stroke-width="21"/><path stroke-width="14" d="M436.59 308.31h38.4v106.95h-38.4zM369.74 307.34h38.41v106.95h-38.41zM234.76 338.47h25.42v42.55h-25.42zM172.5 452.36h42.54v25.42H172.5zM278.87 452.36h42.54v25.42h-42.54z"/><path d="M488.48 588.3H113.299c-6.99 0-12.66-5.58-12.66-12.45V231.07c0-6.88 5.67-12.45 12.66-12.45h366.88M616.05 622.63l8.44.11c3.1-.26 28.8 0 101.18-2.34 22.13-.71 15.57-31.131 15.57-33.46 0-2.341-1.561-163.44-3.12-196.911-1.55-33.46 8.56-78.6 12.45-129.97 3.899-51.37-3.11-129.2-11.67-157.99-8.561-28.8-31.91-28.02-31.91-28.02l-179.86-.2s-23.34-.77-31.91 28.02c-6.47 21.78-12.05 71.58-12.7 116.78-.22 14.58.08 28.68 1.03 41.21 3.891 51.37 14.01 96.51 12.45 129.98-1.55 33.46-3.11 194.57-3.11 196.9 0 .3-.109 1.06-.25 2.16-.96 7.479-3.479 30.689 15.82 31.31 72.38 2.33 98.07 2.07 101.17 2.33l6.42.091z" stroke-width="14"/><path d="M715.48 216.28c0 6.88-5.58 12.45-12.45 12.45H540.37c-6.88 0-12.46-5.57-12.46-12.45v-66.15c0-6.88 5.58-12.46 12.46-12.46h162.66c6.87 0 12.45 5.58 12.45 12.46v66.15z" stroke-width="14"/><path d="M536.47 281.27a8.173 8.173 0 0 1-13.95 5.78 8.16 8.16 0 0 1-2.39-5.78v-17.13c0-4.51 3.66-8.17 8.17-8.17 2.26 0 4.3.91 5.78 2.39a8.142 8.142 0 0 1 2.39 5.78v17.13zM578.89 281.27a8.172 8.172 0 0 1-13.949 5.78 8.157 8.157 0 0 1-2.391-5.78v-17.13c0-4.51 3.66-8.17 8.17-8.17 2.261 0 4.3.91 5.78 2.39s2.39 3.52 2.39 5.78v17.13zM669.17 280.88c0 4.51-3.66 8.17-8.17 8.17-2.26 0-4.3-.91-5.78-2.39a8.142 8.142 0 0 1-2.39-5.78v-17.12c0-4.52 3.66-8.18 8.17-8.18 2.26 0 4.3.92 5.78 2.4a8.142 8.142 0 0 1 2.39 5.78v17.12zM711.59 280.88c0 4.51-3.66 8.17-8.17 8.17-2.26 0-4.3-.91-5.78-2.39a8.15 8.15 0 0 1-2.399-5.78v-17.12c0-4.52 3.66-8.18 8.18-8.18 2.26 0 4.3.92 5.78 2.4a8.142 8.142 0 0 1 2.39 5.78v17.12zM624.03 280.88c0 4.51-3.66 8.17-8.17 8.17a8.135 8.135 0 0 1-5.78-2.39 8.138 8.138 0 0 1-2.39-5.78v-17.12c0-4.52 3.659-8.18 8.17-8.18 2.26 0 4.3.92 5.779 2.4a8.14 8.14 0 0 1 2.391 5.78v17.12z" stroke-width="12.453"/></g></g><path fill="none" d="M0 0h850.394v850.394H0z"/><text transform="translate(560 188)" font-family="ComicSansMS-Bold" font-size="36">12.50</text></svg>