<svg id="Layer_1" xmlns="http://www.w3.org/2000/svg" width="850.394" height="850.394" viewBox="0 0 850.394 850.394" overflow="visible"><g id="XMLID_8_"><path fill="#ffffc2" d="M153.76 86.29h538.92v5.74L517.72 205.74l-90.99 59.14-93.14-60.32L158.86 91.4h-5.1z"/><path fill="#ffffc2" d="M517.72 205.74L692.68 92.03v-5.74h5.75v272.2h-3.03L519.06 207.81z"/><path fill="#ffffc2" d="M425.7 402.63H153.76v-44.64L333.1 205.31l.49-.75 93.14 60.32 90.99-59.14 1.34 2.07L695.4 358.49h3.03v44.14z"/><path fill="#ffffc2" d="M153.76 357.99V91.4h5.1l174.73 113.16-.49.75z"/><path fill="#c8c8c8" d="M754.72 526.71V756.2H94.95V526.71h187.89v116.18h283.63V526.71z"/><path fill="#0d72ba" d="M282.84 526.71h283.63v116.18H282.84z"/><g fill="none" stroke="#231f20" stroke-width="21"><path d="M566.47 526.71h188.25V756.2H94.95V526.71h187.89"/><path d="M282.84 526.71h283.63v116.18H282.84zM698.43 358.49v44.14H153.76V86.29h544.67z"/><path d="M158.86 91.4l174.73 113.16 93.14 60.32 90.99-59.14L692.68 92.03M333.1 205.31L153.76 357.99M519.06 207.81L695.4 358.49M425.7 299.73V480.5M476.72 425.18l-51.22 56.4-51.2-56.49"/></g></g><path fill="none" d="M0 0h850.394v850.394H0z"/><text transform="translate(382 180)" font-family="Arial-BoldMT" font-size="90">@</text></svg>