<svg id="Layer_1" xmlns="http://www.w3.org/2000/svg" width="850.394" height="850.394" viewBox="0 0 850.394 850.394" overflow="visible"><g id="XMLID_27_"><path fill="#abda4d" d="M572.88 235.75l8.22 46.63H163.26l50.65 287.28-1.91.34-54.25.33-59-334.58z"/><path fill="#a3d9ff" d="M646 332v1.12H229.86l50.04 283.85h-57.65l-8.34-47.31-50.65-287.28h474.12z"/><path fill="#f0947d" d="M703.98 333.12l59 334.59H288.85l-8.94-50.74h-.01l-50.04-283.85H646z"/><g fill="none" stroke="#231f20" stroke-width="19.029"><path d="M581.1 282.38l-8.22-46.63H98.75l59 334.58L212 570"/><path d="M646 332l-8.62-49.62H163.26l50.65 287.28 8.34 47.31h57.65"/><path d="M279.91 616.97l8.94 50.74h474.13l-59-334.59H229.86l50.04 283.85z"/></g></g><g id="XMLID_30_"><path d="M161.04 168.21l14.27 67.54H98.75L84.93 169.8l76.11-1.59zm-20.06 28.26l7.91-1.87c-.33-3.23-1.21-5.72-2.65-7.45-2.42-2.93-5.96-4.41-10.61-4.44-5.32-.03-9.92 1.8-13.8 5.5-3.89 3.69-6.38 8.89-7.5 15.6-1.05 6.34-.26 11.35 2.38 15.02 2.65 3.68 6.49 5.53 11.53 5.56 4.08.02 7.62-1.03 10.63-3.16 3.01-2.13 5.45-5.39 7.32-9.8l-7.02-2.53c-1.13 2.95-2.55 5.11-4.24 6.48-1.7 1.37-3.57 2.05-5.61 2.04-2.76-.02-4.83-1.11-6.2-3.28s-1.63-5.8-.78-10.89c.8-4.8 2.25-8.27 4.36-10.4 2.11-2.13 4.57-3.19 7.39-3.18 2.04.02 3.67.63 4.9 1.85 1.22 1.21 1.89 2.86 1.99 4.95z" fill="#fff"/><path d="M148.89 194.6l-7.91 1.87c-.1-2.09-.77-3.74-1.99-4.95-1.23-1.22-2.86-1.83-4.9-1.85-2.82-.01-5.28 1.05-7.39 3.18-2.11 2.13-3.56 5.6-4.36 10.4-.85 5.09-.59 8.72.78 10.89s3.44 3.26 6.2 3.28c2.04.01 3.91-.67 5.61-2.04 1.69-1.37 3.11-3.53 4.24-6.48l7.02 2.53c-1.87 4.41-4.31 7.67-7.32 9.8-3.01 2.13-6.55 3.18-10.63 3.16-5.04-.03-8.88-1.88-11.53-5.56-2.64-3.67-3.43-8.68-2.38-15.02 1.12-6.71 3.61-11.91 7.5-15.6 3.88-3.7 8.48-5.53 13.8-5.5 4.65.03 8.19 1.51 10.61 4.44 1.44 1.73 2.32 4.22 2.65 7.45z"/><g><path fill="none" stroke="#231f20" stroke-width="19.029" d="M98.75 235.75L84.93 169.8l76.11-1.59 14.27 67.54"/></g></g><path fill="#fff" stroke="#231f20" stroke-width="19.029" d="M163.26 282.382l-12.326-69.307 76.114-1.586 14.271 67.536"/><text transform="matrix(.9287 .0051 -.1638 .9865 174.552 266.877)" fill="#231f20" font-family="Arial-BoldMT" font-size="57.086">B</text><path fill="#fff" stroke="#231f20" stroke-width="19.029" d="M229.86 333.125l-12.137-71.621 76.114-1.586 14.271 67.536"/><text transform="matrix(.9287 .0051 -.1638 .9865 241.339 315.31)" fill="#231f20" font-family="Arial-BoldMT" font-size="57.086">A</text><path fill="none" d="M0 0h850.394v850.394H0z"/></svg>