<svg id="Layer_1" xmlns="http://www.w3.org/2000/svg" width="850.394" height="850.394" viewBox="0 0 850.394 850.394" overflow="visible"><g id="XMLID_15_"><path d="M753.5 389.95c18.38 9.56 27.58 38.58 20.81 69.609-3.96 18.171-12.609 33.431-23.26 43.171-9.78 8.96-21.25 13.239-32.3 10.829-.59-.13-1.17-.27-1.75-.439-21.96-6.25-33.69-37.82-26.27-71.79 7.6-34.86 32.479-59.03 55.56-54 2.53.55 4.94 1.44 7.21 2.62zM753.5 263.41v5.5h-4.28l-338.33 75.62s-10.81.6-17.91 11.69l-74.42-25.75-1.31-.55c10.97-25.84 36.98-27.99 36.98-27.99l301.03-63.59 98.24 25.07z" fill="#c8c8c8"/><path d="M726.81 373.21l26.69 15.35v1.39a28.936 28.936 0 0 0-7.21-2.62c-23.08-5.03-47.96 19.14-55.56 54-7.421 33.97 4.31 65.54 26.27 71.79l-25.87-2.07-11.45-.92-.779-1.49c-16.25-14.46-23.551-44.22-16.65-75.779 8.07-36.97 32.48-62.3 57.19-62.3h2.75l4.619 2.649z" fill="#7a7878"/><path d="M695.66 344.14c13.91 3.69 26.05 12.01 31.35 28.72l-.2.35-4.619-2.65h-2.75c-24.71 0-49.12 25.33-57.19 62.3-6.9 31.56.4 61.319 16.65 75.779l.779 1.49 11.45.92c-12.67 10.76-30.43 13.71-42.51 10.51-32.87-8.72-48.99-55.51-36-104.5 13-48.989 50.17-81.639 83.04-72.919z" fill="#7a7878"/><path d="M709.06 301.93c11.721 0 21.2 9.85 21.2 22.02 0 12.14-9.479 22-21.2 22-11.699 0-21.189-9.86-21.189-22-.001-12.17 9.489-22.02 21.189-22.02z" fill="#fff"/><path d="M709.06 345.95c11.721 0 21.2-9.86 21.2-22 0-12.17-9.479-22.02-21.2-22.02-11.699 0-21.189 9.85-21.189 22.02-.001 12.14 9.489 22 21.189 22zm-316.08 10.27c7.1-11.09 17.91-11.69 17.91-11.69l338.33-75.62h4.28v119.65l-26.69-15.35.2-.35c-5.3-16.71-17.439-25.03-31.35-28.72-32.87-8.72-70.04 23.93-83.04 72.92-12.99 48.99 3.13 95.78 36 104.5 12.08 3.2 29.84.25 42.51-10.51l25.87 2.07c.58.17 1.16.31 1.75.439 11.05 2.41 22.52-1.869 32.3-10.829v25.43s-302.66 87.439-329.56 91.72c-7.49 1.19-13.18-.22-17.49-2.89-11.18-6.891-13.09-22.181-13.09-22.181s-5.7-186.689-3.87-217.87c.55-9.339 2.91-15.989 5.94-20.719zm122.39 36.15c8.17-1.6 13.51-9.52 11.899-17.69-1.6-8.18-9.52-13.51-17.699-11.91l-56 10.96c-7.2 1.4-12.19 7.71-12.19 14.78 0 .96.09 1.93.28 2.91 1.6 8.18 9.52 13.51 17.7 11.91l56.01-10.96z" fill="#c8c8c8"/><path d="M527.27 374.68c1.61 8.17-3.729 16.09-11.899 17.69l-56.01 10.96c-8.181 1.6-16.101-3.73-17.7-11.91-.19-.98-.28-1.95-.28-2.91 0-7.07 4.99-13.38 12.19-14.78l56-10.96c8.179-1.6 16.099 3.73 17.699 11.91z" fill="#fff"/><path d="M404 616.99l-.27.43c-1.05-.39-34.82-12.82-69.68-24.439-19.57-6.521-20.38-44.841-20.38-44.841s-1.22-141.25-1.22-192c0-10.71 1.86-19.31 4.8-26.22l1.31.55 74.42 25.75c-3.03 4.73-5.39 11.38-5.94 20.72-1.83 31.18 3.87 217.87 3.87 217.87s1.91 15.29 13.09 22.18z" fill="#c8c8c8"/><path d="M208.06 449v-69.42H89.21V527.9h118.85V449zm15.16 0l.02 100.65H73.49V351.7h123.79l25.93 22.86.01 74.44z" fill="#7a7878"/><path fill="#c8c8c8" d="M208.06 449v78.9H89.21V379.58h118.85z"/><g fill="none" stroke="#231f20"><path stroke-width="14" d="M223.24 549.65H73.49V351.7h123.79l25.93 22.86.01 74.44z"/><path stroke-width="7" d="M208.06 527.9H89.21V379.58h118.85V449z"/><path d="M749.22 268.91l-338.33 75.62s-10.81.6-17.91 11.69c-3.03 4.73-5.39 11.38-5.94 20.72-1.83 31.18 3.87 217.87 3.87 217.87s1.91 15.29 13.09 22.181c4.31 2.67 10 4.08 17.49 2.89 26.899-4.28 329.56-91.72 329.56-91.72V501.67" stroke-width="14"/><path d="M758.8 391.61l-5.3-3.05-26.69-15.35-4.619-2.65h-2.75c-24.71 0-49.12 25.33-57.19 62.3-6.9 31.56.4 61.319 16.65 75.779l.779 1.49 11.45.92 25.87 2.07.73.06" stroke-width="14"/><path d="M691.14 511.04l-.01.01c-12.67 10.76-30.43 13.71-42.51 10.51-32.87-8.72-48.99-55.51-36-104.5 13-48.99 50.17-81.64 83.04-72.92 13.91 3.69 26.05 12.01 31.35 28.72" stroke-width="14"/><path d="M753.5 389.98V263.41l-98.24-25.07-301.03 63.59s-26.01 2.15-36.98 27.99c-2.94 6.91-4.8 15.51-4.8 26.22 0 50.75 1.22 192 1.22 192s.81 38.32 20.38 44.841c34.86 11.619 68.63 24.05 69.68 24.439.01.01.02.01.02.01" stroke-width="14"/><path stroke-width="14" d="M318.56 330.47l74.42 25.75.38.13M753.5 389.95c18.38 9.56 27.58 38.58 20.81 69.609-3.96 18.171-12.609 33.431-23.26 43.171-9.78 8.96-21.25 13.239-32.3 10.829-.59-.13-1.17-.27-1.75-.439-21.96-6.25-33.69-37.82-26.27-71.79 7.6-34.86 32.479-59.03 55.56-54 2.53.55 4.94 1.44 7.21 2.62zM730.26 323.95c0 12.14-9.479 22-21.2 22-11.699 0-21.189-9.86-21.189-22 0-12.17 9.49-22.02 21.189-22.02 11.72 0 21.2 9.85 21.2 22.02zM527.27 374.68c1.61 8.17-3.729 16.09-11.899 17.69l-56.01 10.96c-8.181 1.6-16.101-3.73-17.7-11.91-.19-.98-.28-1.95-.28-2.91 0-7.07 4.99-13.38 12.19-14.78l56-10.96c8.179-1.6 16.099 3.73 17.699 11.91zM197.97 449h88.44M247.59 484.8l39.57-35.93-39.63-35.91"/></g></g><path fill="none" d="M0 0h850.394v850.394H0z"/><text transform="translate(110 462)" fill="#23201f" font-family="Arial-BoldMT" font-size="36">2 GB</text></svg>