<svg id="Layer_1" xmlns="http://www.w3.org/2000/svg" width="850.394" height="850.394" viewBox="0 0 850.394 850.394" overflow="visible"><g id="XMLID_9_"><path d="M363.85 651.83c-.06 1.13-.1 1.72-.1 1.72s-6.7 48.41-25.32 67.021c-18.61 18.62-75.95 28.12-114.67 28.12l-.01-.11c-38.72 0-96.05-9.5-114.67-28.11-18.62-18.62-25.32-67.02-25.32-67.02s-.03-.431-.08-1.271c10.28 31.37 70.12 55.44 140.01 55.44 70.13 0 130.17-24.23 140.16-55.79zM244.32 597.6v2.181c0 8.22-6.66 14.89-14.88 14.89h-11.37c-8.22 0-14.89-6.67-14.89-14.89V597.6c0-8.22 6.67-14.88 14.89-14.88h11.37c8.22 0 14.88 6.66 14.88 14.88z" fill="#7a7878"/><path d="M276.94 675.11l10.91-.591c41.03-2.8 46.66-37.68 46.66-37.68l2.86-27.18 5.18-49.28H223.79l-.04-.01H104.99l5.17 49.18 2.87 27.28s5.63 34.89 46.66 37.68l10.45.57 53.62 2.9v.01l53.18-2.879zm64.85-313.97l1.63-203.72H222.79l-43.52.04h-1.43l-74.72.07 2.98 371.57s61.43 10.051 117.65 11.16l-.96-.109c56.23-1.12 117.66-11.17 117.66-11.17l1.34-167.841zm32.38 0v24.35c0 91.13-9.23 248.21-10.32 266.34-9.99 31.56-70.03 55.79-140.16 55.79-69.89 0-129.73-24.07-140.01-55.44-.94-15.779-10.34-174.87-10.34-266.8v-235.3s7.16-23.55 31.27-31.27c37.23-11.91 119.17-15.96 119.17-15.96s81.89 4.16 119.12 16.07c24.11 7.72 31.27 31.28 31.27 31.28v210.94z" fill="#7a7878"/><path d="M341.79 361.14l-1.34 167.84s-61.43 10.05-117.66 11.17l.96.109C167.53 539.15 106.1 529.1 106.1 529.1l-2.98-371.57 74.72-.07h1.43l43.52-.04h120.63l-1.63 203.72zm-28.19 0V215.12H132.91v269.06H313.6V361.14z" fill="#7a7878"/><path fill="#c8c8c8" d="M155.24 560.38l7.57 48.69-3.1.48h-49.55l-5.17-49.18h50.25zM342.55 560.38l-5.18 49.28-.45-.05h-49.55l-3.1-.48 7.57-48.7v-.05zM223.76 677.98l-53.62-2.9-2.98-38.02h56.17v.07h56.59l-2.98 37.98-53.18 2.88z"/><path d="M167.16 637.06l2.98 38.021-10.45-.57c-41.03-2.79-46.66-37.68-46.66-37.68l-2.87-27.28h49.55l3.1-.479 4.35 27.988z" fill="#c8c8c8"/><path d="M223.33 637.06h-56.17l-4.35-27.989-7.57-48.69v-.01h68.51l.04.01h68.05v.05l-7.57 48.7-4.35 28h-56.59v-.071zm20.99-37.28v-2.18c0-8.22-6.66-14.88-14.88-14.88h-11.37c-8.22 0-14.89 6.66-14.89 14.88v2.181c0 8.22 6.67 14.89 14.89 14.89h11.37c8.22-.001 14.88-6.671 14.88-14.891z" fill="#c8c8c8"/><path d="M337.37 609.66l-2.86 27.18s-5.63 34.88-46.66 37.68l-10.91.591 2.98-37.98 4.35-28 3.1.48h49.55l.45.049z" fill="#c8c8c8"/><path fill="#ffffc2" d="M778.49 417.69v21.67H511.06v-21.91l87.99-75.54 46.04 29.81 44.61-28.99 87.31 74.96z"/><path fill="#ffffc2" d="M778.49 286.86v130.83h-1.48l-87.31-74.96 85.97-55.87z"/><path fill="#ffffc2" d="M513.56 284.04h264.93v2.82h-2.82l-85.97 55.87-44.61 28.99-46.04-29.81-85.49-55.37z"/><path fill="#ffffc2" d="M513.56 286.54l85.49 55.37-87.99 75.54V284.04h2.5z"/><path fill="#c8c8c8" d="M313.6 361.14v123.04H132.91V215.12H313.6z"/><g fill="none" stroke="#231f20"><path d="M83.68 652.18c-.94-15.779-10.34-174.87-10.34-266.8v-235.3s7.16-23.55 31.27-31.27c37.23-11.91 119.17-15.96 119.17-15.96s81.89 4.16 119.12 16.07c24.11 7.72 31.27 31.28 31.27 31.28v235.29c0 91.13-9.23 248.21-10.32 266.34-.06 1.13-.1 1.72-.1 1.72s-6.7 48.41-25.32 67.021c-18.61 18.62-75.95 28.12-114.67 28.12l-.01-.11c-38.72 0-96.05-9.5-114.67-28.11-18.62-18.62-25.32-67.02-25.32-67.02s-.03-.431-.08-1.271z" stroke-width="21"/><path d="M177.84 157.46l-74.72.07 2.98 371.57s61.43 10.051 117.65 11.16l-.96-.109c56.23-1.12 117.66-11.17 117.66-11.17l1.34-167.84 1.63-203.72H222.79l-43.52.04" stroke-width="14"/><path stroke-width="14" d="M313.6 484.18H132.91V215.12H313.6v146.02z"/><path stroke-width="30.858" stroke-linecap="round" stroke-linejoin="round" d="M177.84 157.46h94.31"/><path d="M364.75 648.34c-.23 1.17-.53 2.34-.9 3.49-9.99 31.56-70.03 55.79-140.16 55.79-69.89 0-129.73-24.07-140.01-55.44-.35-1.05-.64-2.109-.87-3.18" stroke-width="21" stroke-linecap="round" stroke-linejoin="round"/><path d="M223.76 677.99l53.18-2.88 10.91-.591c41.03-2.8 46.66-37.68 46.66-37.68l2.86-27.18 5.18-49.28H223.79l-.04-.01H104.99l5.17 49.18 2.87 27.28s5.63 34.89 46.66 37.68l10.45.57 53.62 2.9h.02" stroke-width="14"/><path stroke-width="14" d="M155.24 560.38l7.57 48.69 4.35 27.99h56.59M110.16 609.55h49.55M167.16 637.06l2.98 38.02"/><path stroke-width="14" d="M291.84 560.43l-7.57 48.7-4.35 28h-56.59M336.92 609.61h-49.55M279.92 637.13l-2.98 37.98v.03M244.32 599.78c0 8.22-6.66 14.89-14.88 14.89h-11.37c-8.22 0-14.89-6.67-14.89-14.89v-2.18c0-8.22 6.67-14.88 14.89-14.88h11.37c8.22 0 14.88 6.66 14.88 14.88v2.18zM778.49 417.69v21.67H511.06V284.04h267.43v2.82z"/><path stroke-width="14" d="M513.56 286.54l85.49 55.37 46.04 29.81 44.61-28.99 85.97-55.87"/><path stroke-width="7" d="M600.1 341.01l-1.05.9-87.99 75.54M687.97 341.25l1.73 1.48 87.31 74.96"/><path stroke-width="20.572" d="M228.13 361.14H474.9M419.97 310.48l56 50.85-56.1 50.84"/></g></g><path fill="none" d="M0 0h850.394v850.394H0z"/><text transform="translate(162 272)"><tspan x="0" y="0" font-family="ComicSansMS-Bold" font-size="21">aaaaaaaaaa</tspan><tspan x="0" y="25.2" font-family="ComicSansMS-Bold" font-size="21">aaaaaaaaaa</tspan></text></svg>