<svg id="Layer_1" xmlns="http://www.w3.org/2000/svg" width="850.394" height="850.394" viewBox="0 0 850.394 850.394" overflow="visible"><g id="XMLID_2_"><g id="XMLID_3_"><path fill="#bd2025" d="M437.3 265.86h265.83l69.5 126.72h-64.79v-.88H535.89l.01-3.28-20.21-.05-.01 3.33H175.4v.88h-73.5l69.5-126.72h265.83z"/><path fill="#231f20" d="M535.9 388.42l-.01 3.28h-20.21l.01-3.33z"/><path fill="#9c5c25" d="M515.26 586.01l-.35 155.89H175.4V586.75z"/><path fill="#bd2025" d="M515.68 391.7h20.21v.88h-20.21z"/><path fill="#231f20" d="M514.91 743.29v-1.39h20.21v1.43zM515.26 586.01l.42-193.43h20.21l-.77 349.32h-20.21z"/><path d="M230 572v-30h-30v30h30zm55-29h-22v-30h-30v30h22v30h30v-30zm-4-2h30v-30h-30v30zm20 2v30h30v-30h-30zm136.43-150.42h78.25l-.42 193.43-339.86.74V392.58h262.03zM507 578.12v-56.24h-30v56.24h30zM450.12 575v-30h-56.24v30h56.24z" fill="#fff5b4"/><path fill="#bd2025" d="M175.4 391.7h340.28v.88H175.4z"/><path d="M535.12 741.9l.77-349.32h171.95V741.9H535.12zm143.17-191.7V438.81H555.33V550.2h122.96zM581 631.32v-51.87h-12.97v51.87H581z" fill="#34a047"/><path fill="#bd2025" d="M535.89 391.7h171.95v.88H535.89z"/><path fill="#fff" d="M169.35 103.62h534.81v98.88H169.35zM555.33 438.81h122.96v111.391H555.33z"/><path fill="#ed1e29" d="M477 521.88h30v56.24h-30z"/><path fill="#fbed24" d="M393.88 545h56.24v30h-56.24z"/><path fill="#8c469b" d="M301 543h30v30h-30zM281 511h30v30h-30zM285 543v30h-30v-30h8zM263 513v30h-30v-30zM200 542h30v30h-30z"/><g fill="none" stroke="#231f20"><path stroke-width="21" d="M707.84 392.58V741.9H175.4V391.7H707.84z"/><path stroke-width="14" d="M555.33 438.81h122.96v111.391H555.33z"/><path stroke-width="18.738" d="M568.03 579.45H581v51.87h-12.97z"/><path stroke-width="21" d="M171.4 586.76l4-.01 339.86-.74L518 586M175.4 392.58H772.63l-69.5-126.72H171.4l-69.5 126.72zM169.35 103.62h534.81v98.88H169.35z"/><path stroke-width="7" d="M200 542h30v30h-30zM263 543h22v30h-30v-30M263 543h-30v-30h30zM301 543h30v30h-30zM281 511h30v30h-30z"/><path stroke-width="9.585" d="M477 521.88h30v56.24h-30zM393.88 545h56.24v30h-56.24z"/></g></g></g><path fill="none" d="M77.409 403.319h694.347"/><circle cx="96.059" cy="403.319" r="17.854" fill="#444041"/><circle cx="132.561" cy="403.319" r="17.854" fill="#444041"/><circle cx="169.064" cy="403.319" r="17.854" fill="#444041"/><circle cx="205.567" cy="403.319" r="17.854" fill="#444041"/><circle cx="242.069" cy="403.319" r="17.854" fill="#444041"/><circle cx="278.572" cy="403.319" r="17.854" fill="#444041"/><circle cx="315.075" cy="403.319" r="17.854" fill="#444041"/><circle cx="351.578" cy="403.319" r="17.854" fill="#444041"/><circle cx="388.081" cy="403.319" r="17.854" fill="#444041"/><circle cx="424.583" cy="403.319" r="17.854" fill="#444041"/><circle cx="461.086" cy="403.319" r="17.854" fill="#444041"/><circle cx="497.589" cy="403.319" r="17.854" fill="#444041"/><circle cx="534.092" cy="403.319" r="17.854" fill="#444041"/><circle cx="570.594" cy="403.319" r="17.854" fill="#444041"/><circle cx="607.097" cy="403.319" r="17.854" fill="#444041"/><circle cx="643.6" cy="403.319" r="17.854" fill="#444041"/><circle cx="680.103" cy="403.319" r="17.854" fill="#444041"/><circle cx="716.605" cy="403.319" r="17.854" fill="#444041"/><circle cx="753.107" cy="403.319" r="17.854" fill="#444041"/><path fill="none" d="M0 0h850.394v850.394H0z"/><text transform="matrix(.7387 0 0 1 567.688 514.766)" fill="#231f20" font-family="Arial-BoldMT" font-size="46.945">OPEN</text></svg>