<svg id="Layer_1" xmlns="http://www.w3.org/2000/svg" width="850.394" height="850.394" viewBox="0 0 850.394 850.394" overflow="visible"><g id="XMLID_5_"><path fill="#ffffc2" d="M703.52 356.61L520.74 200.26l-.52-.8 180.49-117.3v-5.91h5.92v280.36z"/><path fill="#ffffc2" d="M425.34 402.08H145.63V356.1l182.78-156.36 1.49-2.3 96.88 62.75 93.44-60.73.52.8 182.78 156.35h3.11v45.47z"/><path fill="#ffffc2" d="M700.71 76.25v5.91l-180.49 117.3-93.44 60.73-96.88-62.75L150.88 81.5v-5.25z"/><path fill="#ffffc2" d="M145.63 356.1V76.25h5.25v5.25L329.9 197.44l-1.49 2.3z"/><path fill="#c8c8c8" d="M764.61 529.87v236.37H85.06V529.87h193.52v119.66h292.14V529.87z"/><path fill="#0d72ba" d="M278.58 529.87h292.14v119.66H278.58z"/><g fill="none" stroke="#231f20" stroke-width="21"><path d="M570.72 529.87h193.89v236.37H85.06V529.87h193.52"/><path d="M278.58 529.87h292.14v119.66H278.58zM706.63 356.61v45.47h-561V76.25h561z"/><path d="M150.88 81.5L329.9 197.44l96.88 62.75 93.44-60.73 180.49-117.3M328.41 199.74L145.63 356.1M520.74 200.26l182.78 156.35M425.34 501.12v-186.2M372.78 371.91l52.77-58.1L478.28 372"/></g></g><path fill="none" d="M0 0h850.394v850.394H0z"/><text transform="translate(380 168)" font-family="Arial-BoldMT" font-size="90">@</text></svg>