<svg id="Layer_1" xmlns="http://www.w3.org/2000/svg" width="850.394" height="850.394" viewBox="0 0 850.394 850.394" overflow="visible"><g id="XMLID_3_"><path fill="#c8c8c8" d="M566.29 549.06H223.86V299.38h402.17v338.24h-59.74v-88.37z"/><path fill="#c8c8c8" d="M281.52 637.62H223.86v-88.56H281.52v.19z"/><path fill="#fff" d="M566.29 637.62v148.91H281.52V549.06h284.77v.19zM280.01 72.45H564.8v223.92H280.01z"/><path d="M761.41 365.56l-.25 272.06H626.03V299.38h73.7s58.66 0 61.68 66.18zm-35.2 62.72v-9.24c0-6.32-5.13-11.45-11.44-11.45h-40.9c-6.32 0-11.44 5.13-11.44 11.45v9.24c0 6.319 5.12 11.45 11.44 11.45h40.899c6.311 0 11.441-5.13 11.441-11.45zm-.03-47.56v-9.25c0-6.33-5.13-11.44-11.439-11.44h-40.9a11.43 11.43 0 0 0-11.439 11.44v9.25c0 6.31 5.119 11.44 11.439 11.44h40.9c6.309 0 11.439-5.13 11.439-11.44zm-9.8 96.06c0-11.681-9.479-21.141-21.14-21.141-11.681 0-21.16 9.46-21.16 21.141 0 11.68 9.479 21.14 21.16 21.14 11.66 0 21.14-9.46 21.14-21.14zM223.86 549.06v88.561H88.73l-.25-272.06c3.01-66.18 61.67-66.18 61.67-66.18h73.71V549.06z" fill="#7a7878"/><path d="M726.21 419.04v9.24c0 6.319-5.13 11.45-11.44 11.45h-40.9c-6.32 0-11.44-5.131-11.44-11.45v-9.24c0-6.32 5.12-11.45 11.44-11.45h40.899c6.311 0 11.441 5.13 11.441 11.45zM726.18 371.47v9.25c0 6.31-5.13 11.44-11.439 11.44h-40.9c-6.32 0-11.439-5.13-11.439-11.44v-9.25a11.43 11.43 0 0 1 11.439-11.44h40.9c6.309 0 11.439 5.11 11.439 11.44zM695.24 455.64c11.66 0 21.14 9.46 21.14 21.141 0 11.68-9.479 21.14-21.14 21.14-11.681 0-21.16-9.46-21.16-21.14 0-11.681 9.48-21.141 21.16-21.141zM573.38 216.65h27.08v81.23h-27.08zM249.43 216.65h27.07v81.22h-27.07z" fill="#231f20"/><g fill="none" stroke="#231f20" stroke-width="21"><path d="M280.01 72.45H564.8v223.92H280.01zM566.29 549.25v237.28H281.52V549.25"/><path d="M424.47 299.38H150.15s-58.66 0-61.67 66.18l.25 272.06h192.3M224.85 549.06h393.1M223.86 302.39V636.31M249.43 216.65h27.07v81.22h-27.07zM424.47 299.38h275.26s58.659 0 61.68 66.18l-.25 272.06h-193.3M626.03 302.39v333.92M573.38 216.65h27.08v81.23h-27.08z"/></g></g><path fill="none" d="M0 0h850.394v850.394H0z"/><text transform="translate(340 646)"><tspan x="0" y="0" font-family="Arial-BoldMT" font-size="36">- - - - - - - -</tspan><tspan x="0" y="43.2" font-family="Arial-BoldMT" font-size="36">- - - - - - - -</tspan><tspan x="0" y="86.4" font-family="Arial-BoldMT" font-size="36">- - - - - - - -</tspan></text></svg>