<svg id="Layer_1" xmlns="http://www.w3.org/2000/svg" width="850.394" height="850.394" viewBox="0 0 850.394 850.394" overflow="visible"><g id="XMLID_12_"><path d="M503.08 168.24l5.5.25c6.99 14.48 18.45 24.98 32.05 28.19l.01.01c7.19 3.95 31.101 15.76 45.851 40.67 1.51 2.55 5.92 31.94 5.92 31.94 1.479 35.52 14.85 95.18 18.93 99.99l.04.65c12.311-.94 32.18-1.65 65.79-1.5l.1.33 10.08 33.42.53 1.76-94.29 15.62c-21.3-2.95-32.54-20.11-32.54-20.11-6.18-11.48-12.64-29.06-18.46-47.28-18.729 21.3-42.979 47.11-48.24 52.69-2.31-1.72-4.22-3.12-5.6-4.13l-154.28-21.4s53.24-79.27 65.07-101.16c.93-1.71 1.94-3.69 3.01-5.89v-.01c12.69-25.82 35.07-81.7 50.83-94.09 10.34-8.12 22.3-11 32.73-11.58.33-.02.67-.04 1-.05 9.159-.39 10.46.45 14.89 1.44 0 0 .45.1.7.16.09.02.16.03.22.05.11.02.12.02.07.01.059.01.089.02.089.02z" fill="#fbed24"/><path d="M540.63 196.68c-13.6-3.21-25.06-13.71-32.05-28.19-5.03-10.41-7.74-22.9-7.25-36.22 1.28-35.15 24.29-62.84 51.39-61.86 27.11.99 48.05 30.28 46.78 65.43-1.29 35.15-24.3 62.84-51.4 61.86-2.54-.09-5.04-.44-7.46-1.01l-.01-.01z" fill="#ffeec8" class="aac-skin-fill"/><path d="M197.85 658.67c3.09-1.25 6.35-1.62 9.71-.68 11.13 3.109 14.72 13.77 13.47 26-.88 8.72-4.23 18.229-9.03 26.359-11.53 19.521-9.76 15.091-10.2 21.74-.45 6.66-10.92 49.24-38.16 42.601-21.32-5.2-11.2-41.48-6.8-55.61.42-1.35 1.98-2.73 2.8-3.85 4.8-6.591 9.21-4.721 11.74-12.78 2.13-6.79.51-12.771 4.18-19.32 4.3-7.68 12.45-20.49 22.29-24.46zM606.01 661.54s5.771 12.87-30.609 26.18c-35.61 13.03-42.15 15.971-49.25 6.66-4.271-5.61-2.12-25.77.27-40.939L530 654l40.65-12.93c.779 9.67 6.109 7.399 16.729 6.72 13.751-.89 18.631 13.75 18.631 13.75z" fill="#c8c8c8"/><path d="M494.35 404.87c9.41 6.97 25.58 19.15 41.2 31.63l-1.12 1.41-42 59.16-.38 2.55c-1.67-.25-3.319-.48-4.95-.71-24.449-3.36-45.81-4.68-69.22-14.851-5.87-2.55-11.13-5.279-15.85-8.119-4.41 7.489-14.02 23.79-24.3 41.1-.82 1.37-1.63 2.76-2.46 4.14l-4.72-2.81-68.03-36.09-1.91-.36c1.33-7.05 2.74-14.439 4.28-22.11 11.24-56.2 29.58-80.47 29.58-80.47l154.28 21.4c1.38 1.01 3.29 2.41 5.6 4.13z" fill="#0071bc"/><path d="M486.11 166.37v.24c-10.431.58-22.391 3.46-32.73 11.58-15.76 12.39-38.14 68.27-50.83 94.09l-.64-.31-33.13 10.35-54.43 57.38-1.81-1.57L293 321.08l-6.46-5.63 49.7-63.3s63.55-60.72 89.92-77.51c11.91-7.58 53.04-8.22 59.95-8.27z" fill="#fbed24"/><path d="M535.72 436.64c21.221 16.98 41.34 34.5 41.9 40.32 1.18 12.42-5.07 137.87-6.51 152.04-.54 5.3-.7 9.21-.46 12.07L530 654l-3.58-.56c1.59-10.051 3.28-17.921 3.28-17.921 1.27-10.21-3.59-26-5.891-37.279-1.71-8.38-7.659-29.78-9.09-48.79-.399-5.25-.45-10.311.03-14.87 1.51-14.39 14.32-23.75 2.43-30.38-.77-.431-1.6-.8-2.479-1.12-5.95-2.17-14.19-2.16-19.9-3.05-.92-.141-1.84-.28-2.75-.41l.38-2.55 42-59.16 1.12-1.41.17.14zM271.16 639.65c-27.21 19.529-49.69 44.38-49.69 44.38l-.44-.04c1.25-12.23-2.34-22.891-13.47-26-3.36-.94-6.62-.57-9.71.68 5.51-5.46 14.64-21.26 28.35-49.78 14.79-30.76 41.41-45.55 52.06-48.51 9.2-2.56 13.98-33.79 22.35-78.46l1.91.36 68.03 36.09 4.72 2.81c-.06.11-.13.21-.19.32-13.27 22.34-27.02 45.28-31.74 52.49-10.06 15.37-44.96 46.14-72.18 65.66zM735.5 352.4c2.2-.77 3.62 2.52 4.98 5.26.949 1.94.42 3.54-.171 4.52-.06 2.45-.869 6.81-2.13 8.84-6.17 10.05-25.22 25.46-26.26 26.07-5.01 2.87-17.4 3.74-23.26 4.7l-1.311.4-10.08-33.42c3.75-5.87 5.57-10 9.28-13.9 3.91-4.08 12.181-4.9 20.181-7.31 12.96-3.91 18.8-9.14 21.359-9.25 2.28-.1 3.94 1.97 3.3 3.93l.38.14c1.601.74 4.061 3.03 4.94 5.52.712 1.93-.588 3.77-1.208 4.5zM297.12 375.94c-7.25 5.32-11.94 13.06-13.18 22.08-5.66.78-6.95-7.24-6.23-12.11 1.45-1 3.05-2.02 4.81-3.06 4.96-2.91 10.22-5.11 13.94-7.8l1.33.4c-.23.16-.45.32-.67.49z" fill="#ffeec8" class="aac-skin-fill"/><path d="M277.71 385.91c-8.15 5.61-11.66 10.36-13.76 10.96-2.19.64-4.3-.99-4.12-3.05l-.41-.04c-1.72-.34-4.66-1.98-6.11-4.19-1.15-1.71-.31-3.83.13-4.68-1.96 1.29-4.12-1.57-6.09-3.92-1.36-1.64-1.24-3.32-.9-4.41-.52-2.4-.77-6.84-.02-9.12 3.63-11.21 18.51-30.68 19.38-31.53 4.19-3.96 19.4-9.88 24.88-12.2l2.31-2.65 19.54 17.05-2.92 3.35c-5.86 12.59-5.38 22.85-9.2 29.5-.89 1.53-2.26 2.85-3.96 4.07-3.72 2.69-8.98 4.89-13.94 7.8a81.581 81.581 0 0 0-4.81 3.06z" fill="#ffeec8" class="aac-skin-fill"/><g fill="none" stroke="#231f20"><path d="M196.62 659.77c.39-.3.8-.67 1.23-1.1 5.51-5.46 14.64-21.26 28.35-49.78 14.79-30.76 41.41-45.55 52.06-48.51 9.2-2.56 13.98-33.79 22.35-78.46 1.33-7.05 2.74-14.439 4.28-22.11 11.24-56.2 29.58-80.47 29.58-80.47s53.24-79.27 65.07-101.16c.93-1.71 1.94-3.69 3.01-5.89v-.01c12.69-25.82 35.07-81.7 50.83-94.09 10.34-8.12 22.3-11 32.73-11.58.33-.02.67-.04 1-.05 9.159-.39 10.46.45 15.97 1.68 0 0-.03-.01-.09-.02.05.01.04.01-.07-.01-.06-.02-.13-.03-.22-.05-.25-.06-.7-.16-.7-.16M221.47 684.03s22.48-24.851 49.69-44.38c27.22-19.521 62.12-50.29 72.18-65.66 4.72-7.21 18.47-30.15 31.74-52.49.06-.11.13-.21.19-.32.83-1.38 1.64-2.77 2.46-4.14 10.28-17.31 19.89-33.61 24.3-41.1l2.54-4.311" stroke-width="21"/><path d="M486.21 398.87s.91.66 2.54 1.87c1.38 1.01 3.29 2.41 5.6 4.13 9.41 6.97 25.58 19.15 41.2 31.63l.17.14c21.221 16.98 41.34 34.5 41.9 40.32 1.18 12.42-5.07 137.87-6.51 152.04-.54 5.3-.7 9.21-.46 12.07.779 9.67 6.109 7.399 16.729 6.72 13.75-.89 18.63 13.75 18.63 13.75s5.771 12.87-30.609 26.18c-35.61 13.03-42.15 15.971-49.25 6.66-4.271-5.61-2.12-25.77.27-40.939 1.59-10.051 3.28-17.921 3.28-17.921 1.27-10.21-3.59-26-5.891-37.279-1.71-8.38-7.659-29.78-9.09-48.79-.399-5.25-.45-10.311.03-14.87 1.51-14.39 14.32-23.75 2.43-30.38-.77-.431-1.6-.8-2.479-1.12-5.95-2.17-14.19-2.16-19.9-3.05-.92-.141-1.84-.28-2.75-.41-1.67-.25-3.319-.48-4.95-.71-24.449-3.36-45.81-4.68-69.22-14.851-5.87-2.55-11.13-5.279-15.85-8.119-12.19-7.341-20.75-15.421-26.78-23.051" stroke-width="21"/><path d="M493.31 405.97l1.04-1.1c5.261-5.58 29.511-31.39 48.24-52.69.11-.13.23-.26.34-.39M534.43 437.91l-42 59.16M302.52 482.28l68.03 36.09" stroke-width="21"/><path d="M197.85 658.67c3.09-1.25 6.35-1.62 9.71-.68 11.13 3.109 14.72 13.77 13.47 26-.88 8.72-4.23 18.229-9.03 26.359-11.53 19.521-9.76 15.091-10.2 21.74-.45 6.66-10.92 49.24-38.16 42.601-21.32-5.2-11.2-41.48-6.8-55.61.42-1.35 1.98-2.73 2.8-3.85 4.8-6.591 9.21-4.721 11.74-12.78 2.13-6.79.51-12.771 4.18-19.32 4.3-7.68 12.45-20.49 22.29-24.46z" stroke-width="21.298"/><path d="M540.64 196.69c7.19 3.95 31.101 15.76 45.851 40.67 1.51 2.55 5.92 31.94 5.92 31.94 1.479 35.52 14.85 95.18 18.93 99.99M538.57 195.35c.17.25.89.69 2.06 1.33" stroke-width="21"/><path d="M588.95 373.2c3.72-.67 7.59-2.13 22.43-3.26 12.311-.94 32.18-1.65 65.79-1.5l.1.33 10.08 33.42.53 1.76-94.29 15.62c-21.3-2.95-32.54-20.11-32.54-20.11-6.18-11.48-12.64-29.06-18.46-47.28-11.33-35.39-20.3-73.16-20.3-73.16" stroke-width="21"/><path d="M688.66 401.79c5.859-.96 18.25-1.83 23.26-4.7 1.04-.61 20.09-16.02 26.26-26.07 1.261-2.03 2.07-6.39 2.13-8.84.051-1.37-.14-2.14-.609-1.58-1.431 1.74-1.23 2.52-10.17 11.01-2.681 2.59-13.2 7.89-13.2 7.89" stroke-width="7" stroke-miterlimit="10"/><path d="M739.5 363.22s.42-.38.81-1.04c.591-.98 1.12-2.58.171-4.52-1.36-2.74-2.78-6.03-4.98-5.26-.39.14-.8.41-1.25.83-3.34 3.18-4.86 5.49-13.02 10.34-5.091 3.03-13.061 7.91-13.061 7.91" stroke-width="7" stroke-miterlimit="10"/><path d="M735.19 352.74s.13-.12.31-.34c.62-.73 1.92-2.57 1.21-4.5-.88-2.49-3.34-4.78-4.94-5.52" stroke-width="10.649" stroke-miterlimit="10"/><path d="M671.16 377.3c2.58-3.23 4.53-6.04 6.109-8.53 3.75-5.87 5.57-10 9.28-13.9 3.91-4.08 12.181-4.9 20.181-7.31 12.96-3.91 18.8-9.14 21.359-9.25 2.28-.1 3.94 1.97 3.3 3.93-.159.48-.46.95-.909 1.38-2.681 2.55-2.15 3.58-12.28 9.48-3.23 1.88-6.78 5.2-19.49 9.25M290.69 323.73c-5.48 2.32-20.69 8.24-24.88 12.2-.87.85-15.75 20.32-19.38 31.53-.75 2.28-.5 6.72.02 9.12.28 1.33.64 2.02.96 1.37.99-2.03.61-2.74 7.28-13.1 2-3.14 10.98-10.78 10.98-10.78M253.45 384.9c.34-.22.67-.58 1-1.08 2.49-3.87 3.42-6.48 10.21-13.11 4.23-4.15 10.83-10.77 10.83-10.77" stroke-width="7" stroke-miterlimit="10"/><path d="M246.99 375.35s-.32.48-.54 1.23c-.34 1.09-.46 2.77.9 4.41 1.97 2.35 4.13 5.21 6.09 3.92" stroke-width="7" stroke-miterlimit="10"/><path d="M253.65 384.52s-.09.14-.2.38c0 0-.01 0-.01.01-.44.85-1.28 2.97-.13 4.68 1.45 2.21 4.39 3.85 6.11 4.19M309.62 341.48c-5.86 12.59-5.38 22.85-9.2 29.5-.89 1.53-2.26 2.85-3.96 4.07-3.72 2.69-8.98 4.89-13.94 7.8a81.581 81.581 0 0 0-4.81 3.06c-8.15 5.61-11.66 10.36-13.76 10.96-2.19.64-4.3-.99-4.12-3.05.04-.5.21-1.02.55-1.54 2-3.11 1.24-3.99 9.7-12.12 2.69-2.58 5.35-6.64 16.75-13.57" stroke-width="7" stroke-miterlimit="10"/><path d="M297.79 375.45c-.23.16-.45.32-.67.49-7.25 5.32-11.94 13.06-13.18 22.08-5.66.78-6.95-7.24-6.23-12.11.03-.22.06-.43.1-.63" stroke-width="7"/><path stroke-width="21" d="M334.47 379.34l154.28 21.4 7.82 1.08M487.1 166.36s-.35 0-.989.01c-6.91.05-48.04.69-59.95 8.27-26.37 16.79-89.92 77.51-89.92 77.51l-49.7 63.3 6.46 5.63 19.54 17.05 1.81 1.57 54.43-57.38 33.13-10.35M508.58 168.49c-5.03-10.41-7.74-22.9-7.25-36.22 1.28-35.15 24.29-62.84 51.39-61.86 27.11.99 48.05 30.28 46.78 65.43-1.29 35.15-24.3 62.84-51.4 61.86-2.54-.09-5.04-.44-7.46-1.01l-.01-.01c-13.6-3.21-25.06-13.71-32.05-28.19zM514.32 502.99l.38.09 26.83 6.42M576.87 565.02l214.32 52.15M383.22 517.9l130.07 31.65M61.73 439.68l232.06 56.47"/><path stroke-width="21.298" d="M530 654l40.65-12.93L574 640"/></g></g><path fill="none" d="M0 0h850.394v850.394H0z"/><path fill="none" stroke="#231f20" stroke-width="14" d="M140 454L486 60M580 566l110-162M730.48 339.66L796 226"/><text transform="rotate(18.666 -646.4 1446.965)" font-family="Arial-BoldMT" font-size="72">31</text></svg>