<svg id="Layer_1" xmlns="http://www.w3.org/2000/svg" width="850.394" height="850.394" viewBox="0 0 850.394 850.394" overflow="visible"><g id="XMLID_6_"><path d="M245.81 612.55c-11.36 1.101-25.26-13.439-24.64-26.88.62-13.439 46.42-53.189 46.42-53.189l2.38-.261c1.53 8.94 6.62 34.24 17.1 48.46l-2.42 2.41s-27.48 28.37-38.84 29.46z" fill="#ffeec8" class="aac-skin-fill"/><path d="M269.38 527.91c7.35 22.51 45.37 40.5 92.99 45.03l2.86.439c-1.72 10.98-3.71 22.58-5.68 33.47l-3.44-.59c-26.7-3.189-54.46-10.399-65.59-21.52a34.659 34.659 0 0 1-3.45-4.061c-10.48-14.22-15.57-39.52-17.1-48.46-.36-2.05-.52-3.239-.52-3.239l-.03-.57c-.01-.139-.02-.309-.04-.499z" fill="#ed177f"/><path d="M331.77 431.1c-.69 7.601-.14 14.11 1.6 20.4l-.1.03h-46.16l4.3 40.91 2.39 22.72s4.69 29.02 38.83 31.34l8.7.47 23.63 1.28 3.79.47c-.9 7.34-2.12 15.79-3.52 24.66l-2.86-.439c-47.62-4.53-85.64-22.521-92.99-45.03-.26-4.5-1.35-22.84-2.66-48.09-.47-9.061-.97-19.021-1.48-29.551-1.02-21.399-2.06-45.14-2.87-68.549-.94-27.11-1.59-53.77-1.59-75.79v-195.79s5.96-19.6 26.02-26.02c30.98-9.91 99.15-13.28 99.15-13.28s68.14 3.46 99.12 13.37c20.06 6.43 26.02 26.02 26.02 26.02v195.79c0 24.2-.78 54-1.88 83.84-2.33 63.59-6.08 127.4-6.7 137.74-3.08 9.79-11.96 18.74-24.899 26.101l-4.44 1.54c-3.03-6.37-5.8-13.23-8.24-20.01-.33-.9-.649-1.811-.96-2.711l5.67-.189c7.03-8.32 8.46-17.17 8.46-17.17l2.381-22.62 4.31-41h-45.44l-1.51.59c-.87-1.16-1.77-2.29-2.71-3.38-4.31-4.99-9.54-10.17-16.04-15.98l2.38-.02c33.54-2.76 61.56-7.34 61.56-7.34l2.47-309.17H385.14l-37.41.04-62.17.06 2.47 309.16s16.58 2.72 39.51 5.23l4.23.368z" fill="#ed177f"/><path d="M269.17 528.43s-39.85 3.17-49.35-3.16c-9.5-6.34-11.08-26.39-2.11-36.409 8.98-10.03 47.77-8.98 47.77-8.98l1.24-.06c1.31 25.25 2.4 43.59 2.66 48.09.02.189.03.359.04.5l-.25.019zM262.37 381.72c.81 23.41 1.85 47.15 2.87 68.549-32.06-11.079-44.36-26.89-41.72-48.49 2.64-21.63 35.35-20.05 35.35-20.05l3.5-.009z" fill="#ffeec8" class="aac-skin-fill"/><path d="M347.73 116.28l37.41-.04H485.5l-2.47 309.17s-28.021 4.58-61.56 7.34l-2.38.02c-1.11-.989-2.26-2-3.45-3.039-10.38-9.021-23.73-19.61-41.2-33.221 0 0-32.72-10.03-39.58 17.41-.85 3.4-1.54 6.58-2.07 9.58-.46 2.66-.81 5.19-1.02 7.6l-4.23-.369c-22.93-2.511-39.51-5.23-39.51-5.23l-2.47-309.16 62.17-.061zm112.96 271.85V164.25H310.34v223.88h150.35z" fill="#c8c8c8"/><path d="M480.48 492.54l-2.381 22.62s-1.43 8.85-8.46 17.17l-5.67.189c-4.7-13.5-8.02-26.369-9.319-34.17-.33-2-.69-3.949-1.061-5.85h26.51l.381.041z" fill="#7a7878"/><path d="M484.79 451.54l-4.31 41-.381-.04h-26.51c-3.33-17.16-8.2-30.24-15.75-40.37l1.51-.59h45.441zM370.22 525.79c.52 3.67-.12 12.07-1.47 22.93l-3.79-.47-23.63-1.28-2.48-31.63h28.09l.51-.189c1.33 3.619 2.27 7.139 2.77 10.639z" fill="#7a7878"/><path d="M328.93 451.53h4.34l.1-.03c2.11 7.64 5.97 14.98 11.52 23.63 10.07 15.71 18.3 28.351 22.56 40.021l-.51.189h-28.09l-3.62-23.3-6.3-40.5v-.01z" fill="#7a7878"/><path d="M338.85 515.34l2.48 31.63-8.7-.47c-34.14-2.32-38.83-31.34-38.83-31.34l-2.39-22.72h41.23l2.59-.4 3.62 23.3z" fill="#7a7878"/><path fill="#7a7878" d="M328.93 451.54l6.3 40.5-2.59.4h-41.23l-4.3-40.91h41.82zM310.34 164.25h150.351v223.88H310.34z"/><path d="M502.51 527.6l-.09 1.46s-3.92 28.271-14.29 46.551l-2.26.58c-4.54-5.431-8.82-12.79-12.7-20.95l4.44-1.54c12.94-7.361 21.82-16.311 24.9-26.101z" fill="#ed177f"/><path d="M414.02 431.6s-24.54 24.54-37.21 26.12c-10.51 1.311-35.73-25.17-44.02-34.22.53-3 1.22-6.18 2.07-9.58 6.86-27.44 39.58-17.41 39.58-17.41 17.47 13.61 30.82 24.2 41.2 33.221l-1.62 1.869z" fill="#ffeec8" class="aac-skin-fill"/><path d="M502.51 527.6c.62-10.34 4.37-74.149 6.7-137.74l.26.01c23.3 17.15 53.11 42.41 66.021 67.32C598.19 501 652.02 598.09 649.38 618.67c-2.34 18.17-44.149 120.23-53.91 143.91L594 762l-267.05 17.95c-2.12-22.36 18.99-110.62 23.74-129.09 1.78-6.96 5.29-24.301 8.86-44.011 1.97-10.89 3.96-22.489 5.68-33.47 1.4-8.87 2.62-17.32 3.52-24.66 1.35-10.859 1.99-19.26 1.47-22.93-.5-3.5-1.44-7.021-2.77-10.64-4.26-11.67-12.49-24.311-22.56-40.021-5.55-8.649-9.41-15.99-11.52-23.63-1.74-6.29-2.29-12.8-1.6-20.4.21-2.409.56-4.939 1.02-7.6 8.29 9.05 33.51 35.53 44.02 34.22 12.67-1.58 37.21-26.12 37.21-26.12l1.62-1.869c1.19 1.039 2.34 2.05 3.45 3.039 6.5 5.811 11.73 10.99 16.04 15.98.94 1.09 1.84 2.22 2.71 3.38 7.55 10.13 12.42 23.21 15.75 40.37.37 1.9.73 3.85 1.061 5.85 1.3 7.801 4.619 20.67 9.319 34.17.311.9.63 1.811.96 2.711 2.44 6.779 5.21 13.64 8.24 20.01 3.88 8.16 8.16 15.52 12.7 20.95l2.26-.58c10.37-18.28 14.29-46.551 14.29-46.551l.09-1.458z" fill="#ffeec8" class="aac-skin-fill"/><g fill="none" stroke="#231f20"><path d="M356.11 606.26c-26.7-3.189-54.46-10.399-65.59-21.52a34.659 34.659 0 0 1-3.45-4.061c-10.48-14.22-15.57-39.52-17.1-48.46-.36-2.05-.52-3.239-.52-3.239l-.03-.57c-.01-.141-.02-.311-.04-.5-.26-4.5-1.35-22.84-2.66-48.09-.47-9.061-.97-19.021-1.48-29.551-1.02-21.399-2.06-45.14-2.87-68.549-.94-27.11-1.59-53.77-1.59-75.79V110.14s5.96-19.6 26.02-26.02c30.98-9.91 99.15-13.28 99.15-13.28s68.14 3.46 99.12 13.37c20.06 6.43 26.02 26.02 26.02 26.02v195.79c0 24.2-.78 54-1.88 83.84-2.33 63.59-6.08 127.4-6.7 137.74l-.09 1.46s-3.92 28.271-14.29 46.551" stroke-width="14"/><path d="M421.47 432.75c33.54-2.76 61.56-7.34 61.56-7.34l2.47-309.17H385.14l-37.41.04-62.17.06 2.47 309.16s16.58 2.72 39.51 5.23" stroke-width="14"/><path stroke-width="12.665" d="M310.34 164.25h150.351v223.88H310.34z"/><path stroke-width="28.496" stroke-linecap="round" stroke-linejoin="round" d="M347.73 116.28h78.47"/><path d="M362.37 572.94c-47.62-4.53-85.64-22.521-92.99-45.03-.29-.87-.53-1.75-.72-2.63M503.25 524.72a24.24 24.24 0 0 1-.74 2.88c-3.08 9.79-11.96 18.74-24.899 26.101" stroke-width="14" stroke-linecap="round" stroke-linejoin="round"/><path d="M333.27 451.53h-46.16l4.3 40.91 2.39 22.72s4.69 29.02 38.83 31.34l8.7.47 23.63 1.28M469.64 532.33c7.03-8.32 8.46-17.17 8.46-17.17l2.381-22.62 4.31-41h-45.44" stroke-width="14"/><path stroke-width="14" d="M328.93 451.54l6.3 40.5 3.62 23.3h28.09M291.41 492.44h41.23M338.85 515.34l2.48 31.63M480.1 492.5h-28.57M509.47 389.87c23.3 17.15 53.11 42.41 66.021 67.32C598.19 501 652.02 598.09 649.38 618.67c-2.34 18.17-44.149 120.23-53.91 143.91l-2.029 4.9"/><path d="M464.93 535.23c-.33-.9-.649-1.811-.96-2.711-4.7-13.5-8.02-26.369-9.319-34.17-.33-2-.69-3.949-1.061-5.85-3.33-17.16-8.2-30.24-15.75-40.37-.87-1.16-1.77-2.29-2.71-3.38-4.31-4.99-9.54-10.17-16.04-15.98-1.11-.989-2.26-2-3.45-3.039-10.38-9.021-23.73-19.61-41.2-33.221 0 0-32.72-10.03-39.58 17.41-.85 3.4-1.54 6.58-2.07 9.58-.46 2.66-.81 5.19-1.02 7.6-.69 7.601-.14 14.11 1.6 20.4 2.11 7.64 5.97 14.98 11.52 23.63 10.07 15.71 18.3 28.351 22.56 40.021 1.33 3.619 2.27 7.14 2.77 10.64.52 3.67-.12 12.07-1.47 22.93-.9 7.34-2.12 15.79-3.52 24.66-1.72 10.98-3.71 22.58-5.68 33.47-3.57 19.71-7.08 37.051-8.86 44.011-4.75 18.47-25.86 106.729-23.74 129.09M533.81 546.91s-12.14 40.1-33.77 38.52c-4.86-.35-9.64-3.819-14.17-9.239-4.54-5.431-8.82-12.79-12.7-20.95-3.03-6.37-5.8-13.23-8.24-20.01M258.87 381.73s-32.71-1.58-35.35 20.05c-2.64 21.6 9.66 37.411 41.72 48.49l.18.061M265.48 479.88s-38.79-1.05-47.77 8.98c-8.97 10.02-7.39 30.069 2.11 36.409 9.5 6.33 49.35 3.16 49.35 3.16M267.59 532.48s-45.8 39.75-46.42 53.189c-.62 13.44 13.28 27.98 24.64 26.88 11.36-1.09 38.84-29.46 38.84-29.46" stroke-width="14"/><path d="M330.11 420.52s.99 1.12 2.68 2.98c8.29 9.05 33.51 35.53 44.02 34.22 12.67-1.58 37.21-26.12 37.21-26.12" stroke-width="14"/></g></g><path fill="none" d="M0 0h850.394v850.394H0z"/><text transform="translate(330 218)"><tspan x="0" y="0" font-family="ComicSansMS-Bold" font-size="24">aaaaaaaa</tspan><tspan x="0" y="28.8" font-family="ComicSansMS-Bold" font-size="24">aaaaaaaa</tspan></text></svg>